<?xml version="1.0" encoding="utf-8"?>
<!-- Generator: Adobe Illustrator 22.1.0, SVG Export Plug-In . SVG Version: 6.00 Build 0)  -->
<svg version="1.1" id="Layer_1" xmlns="http://www.w3.org/2000/svg" xmlns:xlink="http://www.w3.org/1999/xlink" x="0px" y="0px"
	 viewBox="0 0 1008 1008" style="enable-background:new 0 0 1008 1008;" xml:space="preserve">
<style type="text/css">
	.st0{fill:none;}
	.st1{fill:#4F0026;}
	.st2{fill:#FFFFFF;}
	.st3{fill:#091F44;}
	.st4{fill:#4E0125;}
	.st5{enable-background:new    ;}
	.st6{fill:#2C0015;}
	.st7{fill:#310018;}
	.st8{fill:#320018;}
	.st9{fill:#723351;}
	.st10{fill:#270113;}
	.st11{fill:#95667D;}
	.st12{fill:#0A1F45;}
	.st13{fill:#919296;}
	.st14{fill:#D3D3D5;}
	.st15{fill:#081A38;}
	.st16{fill:#9DA5B4;}
	.st17{fill:#6D6E71;}
</style>
<g>
	<g>
		<g>
			<polygon class="st0" points="449.5,760.4 508.5,760.4 449.5,666.4 			"/>
			<rect x="449.5" y="246.3" class="st0" width="168.1" height="203.5"/>
			<path class="st1" d="M845.5,529.3V187L679.5,62.4H136.9v184.5h72v513.5h-72v185.2h377.2V769.4l110.2,175.5l0.4,0.7h220.7V760
				l-83.3,0.8L686.5,633l158.3-103.3L845.5,529.3z M449.5,760.4v-94l59,94H449.5z M617.6,246.3v203.5H449.5V246.3H617.6z"/>
		</g>
		<g>
			<path class="st2" d="M631.4,933.7l-186.7-298l-7.1,0.5v136.1h64.7v161.3H148.9V772.3h72V235h-72V74.3h526.7l158,118.7v329.8
				L670.4,629.3l85,143.5l78.1-0.8v161.6H631.4z M629.5,461.7V234.3h-192v227.3H629.5z"/>
		</g>
		<g>
			<path class="st3" d="M641.3,915.7l-179-285.2l-42.8,0v159.8h64.7v125.3H166.9V790.3h72V217h-72V92.3h502.7l146,109.7v311.1
				L646.2,623.6l99,167.3l70.3-0.7v125.4H641.3z M647.5,479.7V216.3h-228v263.3H647.5z"/>
		</g>
		<g>
			<path class="st4" d="M805.5,207L666.2,102.3H176.9V207h72v593.3h-72v105.3h297.3V800.3h-64.7V620.5l58.3,0l179,285.2h158.7V800.3
				l-66,0.7L632.7,620.5l172.8-112.8V207z M657.5,489.7h-248V206.3h248V489.7z"/>
		</g>
		<g>
			<g class="st5">
				<g>
					<polygon class="st6" points="739.5,801 739.5,801 805.5,800.3 805.5,800.3 					"/>
				</g>
				<g>
					<polygon class="st7" points="666.2,102.3 805.5,207 805.5,207 					"/>
				</g>
				<g>
					<polygon class="st8" points="632.7,620.5 632.7,620.5 739.5,801 739.5,801 					"/>
				</g>
				<g>
					<path class="st6" d="M176.9,102.3h489.3H176.9z"/>
				</g>
				<g>
					<polygon class="st6" points="409.5,800.3 409.5,800.3 474.2,800.3 474.2,800.3 					"/>
				</g>
				<g>
					<polygon class="st6" points="176.9,800.3 176.9,800.3 248.9,800.3 248.9,800.3 					"/>
				</g>
				<g>
					<polygon class="st6" points="409.5,489.7 409.5,489.7 657.5,489.7 657.5,489.7 					"/>
				</g>
				<g>
					<polygon class="st9" points="660.1,881.7 646.9,905.7 467.8,620.5 481.1,596.5 					"/>
				</g>
				<g>
					<polygon class="st10" points="481.1,596.5 467.8,620.5 409.5,620.5 385.5,596.5 					"/>
				</g>
				<g>
					<polygon class="st9" points="385.5,596.5 409.5,620.5 409.5,800.3 385.5,824.3 					"/>
				</g>
				<g>
					<polygon class="st11" points="385.5,824.3 409.5,800.3 474.2,800.3 450.2,824.3 					"/>
				</g>
				<g>
					<polygon class="st9" points="450.2,824.3 474.2,800.3 474.2,905.7 450.2,881.7 					"/>
				</g>
				<g>
					<polygon class="st10" points="450.2,881.7 474.2,905.7 176.9,905.7 200.9,881.7 					"/>
				</g>
				<g>
					<polygon class="st9" points="200.9,881.7 176.9,905.7 176.9,800.3 200.9,824.3 					"/>
				</g>
				<g>
					<polygon class="st11" points="200.9,824.3 176.9,800.3 248.9,800.3 272.9,824.3 					"/>
				</g>
				<g>
					<polygon class="st9" points="681.5,513.7 657.5,489.7 657.5,206.3 681.5,182.3 					"/>
				</g>
				<g>
					<polygon class="st10" points="681.5,182.3 657.5,206.3 409.5,206.3 385.5,182.3 					"/>
				</g>
				<g>
					<polygon class="st9" points="385.5,182.3 409.5,206.3 409.5,489.7 385.5,513.7 					"/>
				</g>
				<g>
					<polygon class="st11" points="385.5,513.7 409.5,489.7 657.5,489.7 681.5,513.7 					"/>
				</g>
				<g>
					<polygon class="st10" points="272.9,183 248.9,207 176.9,207 200.9,183 					"/>
				</g>
				<g>
					<polygon class="st9" points="200.9,183 176.9,207 176.9,102.3 200.9,126.3 					"/>
				</g>
				<g>
					<polygon class="st11" points="200.9,126.3 176.9,102.3 666.2,102.3 658.2,126.3 					"/>
				</g>
				<g>
					<polygon class="st11" points="658.2,126.3 666.2,102.3 805.5,207 781.5,219 					"/>
				</g>
				<g>
					<polygon class="st9" points="272.9,824.3 248.9,800.3 248.9,207 272.9,183 					"/>
				</g>
				<g>
					<polygon class="st9" points="781.5,219 805.5,207 805.5,507.7 781.5,494.7 					"/>
				</g>
				<g>
					<polygon class="st10" points="781.5,494.7 805.5,507.7 632.7,620.5 600.3,613 					"/>
				</g>
				<g>
					<polygon class="st11" points="600.3,613 632.7,620.5 739.5,801 725.9,825.1 					"/>
				</g>
				<g>
					<polygon class="st11" points="725.9,825.1 739.5,801 805.5,800.3 781.5,824.6 					"/>
				</g>
				<g>
					<polygon class="st9" points="781.5,824.6 805.5,800.3 805.5,905.7 781.5,881.7 					"/>
				</g>
				<g>
					<polygon class="st10" points="781.5,881.7 805.5,905.7 646.9,905.7 660.1,881.7 					"/>
				</g>
			</g>
		</g>
	</g>
	<g>
		<path class="st12" d="M959.5,432c-14.9-17.5-54.3-32.3-70-37.7l4.5-15.8l-5.4-2.5c-0.5-0.3-5.8-2.7-23.2-7.2
			c-1.2-0.3-2.7-0.6-4.8-1.1c-9.5-2.1-29.3-6.4-53.5-16.6c-28.5-12-61.7-29-86-41.4c-12-6.1-21.4-11-27-13.5
			c-35.4-16.1-69.7-27.6-99.2-33.3c-42.3-8.1-80.9-8.1-99.4-8.1l-19.7,0l4.7,9.6c-0.9,0-1.8,0-2.7,0c-55.1,0-149.2,12.5-153.2,13
			l-11.2,1.5l6.3,9.4c0,0,0.7,1,1.7,2.6c-22.8,0.9-48.3,4.1-73.1,7.1c-28.2,3.5-57.3,7.1-80.6,7.1c-43,0-70-7-89.8-12.1l-2.7-0.7
			c-13.6-3.5-26.6-6.5-26.7-6.5l-14.8-3.4l18.8,35.9c4.3,8.4,10.4,16.6,18.1,24.3c11.7,11.7,28.5,24.2,46.2,34.3
			c18.8,10.8,36.1,22.4,47.3,31.8c10.2,8.5,16.2,16.3,20.5,22.3c-5,4.4-16,10.2-27.9,13.6l-15.4,4.4l13.7,8.3
			c8.3,5,14.6,9.8,22,15.4c8,6,17,12.9,30.4,21.3c25.2,16,48.4,24.6,57.2,27.6c0.6,0.2,1.1,0.4,1.6,0.5c-4.4,4.5-8.5,8.8-8.5,14
			c0,5.9,5.7,9.2,17.8,14.7c8.8,4,21.1,9.1,35.4,14.9c16.4,6.7,35,14.4,54.2,22.8c46.3,20.3,59.2,33.8,69.6,44.6
			c1.3,1.4,2.6,2.7,3.9,4l5,4.9l5-4.9c0.3-0.3,7.3-7.3,14.5-16.8c47,15.5,94.5,16,99.9,16c17,0,35.2-2.3,46.5-4.4l2.4-0.4l1.6-1.8
			c0.4-0.5,3.4-4.1,4.8-10.7c23.6-1.3,69.5-13.9,71.6-14.5l8.9-2.5l-4.8-7.9c-12.4-20.3-18.3-30.9-20.7-39.6
			c-1.6-5.9-1.7-11.2-1.5-15.3c3.3,0.2,8.8,2.5,22.3,16c1.8,1.8,3.5,3.5,5.2,5.2c26.3,26.5,49,49.3,87,49.3
			c22.4,0,40.3-6.2,53.1-18.4c8.8-8.4,12.3-16.8,14.5-24c0.5-1.7,1.1-3.4,1.5-4.7c2.9-0.8,8.6-1.9,13.8-2.9c1.7-0.3,3.5-0.7,5.3-1
			c9.2-1.8,21.8-4.3,33.4-7.8c11.6-3.6,33.2-11.6,46.8-25.1c13.3-13.3,20.6-30.8,20.7-49.3C975.2,459.9,969.5,443.7,959.5,432z"/>
		<path class="st12" d="M949.6,455.3c-14.7-16.6-53.8-30.7-69.4-35.8l4.5-14.9l-5.3-2.4c-0.5-0.2-5.8-2.5-23-6.8
			c-1.1-0.3-2.7-0.6-4.8-1c-9.4-2-29.1-6-53.1-15.7c-28.2-11.4-61.2-27.5-85.3-39.3c-11.9-5.8-21.3-10.4-26.8-12.8
			c-35.1-15.3-69.1-26.2-98.4-31.6c-41.9-7.7-80.2-7.7-98.6-7.7l-19.6,0l4.7,9.1c-0.9,0-1.8,0-2.7,0c-54.6,0-147.9,11.8-151.9,12.3
			l-11.1,1.4l6.3,8.9c0,0,0.7,1,1.7,2.5c-22.6,0.9-47.9,3.9-72.4,6.8c-27.9,3.3-56.8,6.7-79.9,6.7c-42.7,0-69.4-6.6-89-11.5
			l-2.7-0.7c-13.5-3.3-26.3-6.2-26.5-6.2l-14.7-3.2l18.6,34.1c4.2,8,10.3,15.7,17.9,23c11.6,11.1,28.2,22.9,45.8,32.6
			c18.7,10.3,35.7,21.3,46.9,30.1c10.1,8.1,16,15.4,20.3,21.2c-4.9,4.1-15.9,9.7-27.7,12.9l-15.3,4.2l13.6,7.9
			c8.2,4.7,14.5,9.3,21.8,14.6c7.9,5.7,16.9,12.2,30.1,20.2c25,15.2,48,23.3,56.7,26.1c0.6,0.2,1.1,0.3,1.6,0.5
			c-4.4,4.3-8.4,8.4-8.4,13.3c0,5.6,5.7,8.7,17.7,13.9c8.7,3.8,20.9,8.6,35.1,14.2c16.2,6.4,34.7,13.6,53.7,21.7
			c45.9,19.3,58.7,32.1,69,42.3c1.3,1.3,2.6,2.6,3.9,3.8l4.9,4.7l4.9-4.7c0.3-0.3,7.2-6.9,14.4-15.9c46.6,14.7,93.7,15.1,99.1,15.1
			c16.8,0,34.9-2.1,46.1-4.1l2.3-0.4l1.6-1.7c0.4-0.5,3.4-3.8,4.8-10.1c23.4-1.2,68.9-13.2,71-13.7l8.9-2.3l-4.8-7.5
			c-12.3-19.3-18.2-29.3-20.6-37.6c-1.6-5.6-1.7-10.6-1.5-14.5c3.3,0.2,8.7,2.4,22.1,15.2c1.7,1.7,3.5,3.3,5.1,4.9
			c26.1,25.1,48.6,46.8,86.3,46.8c22.3,0,40-5.9,52.7-17.4c8.7-7.9,12.2-16,14.4-22.8c0.5-1.6,1.1-3.2,1.5-4.4
			c2.9-0.8,8.6-1.8,13.7-2.8c1.7-0.3,3.4-0.6,5.3-1c9.1-1.7,21.6-4.1,33.1-7.4c11.5-3.4,32.9-11,46.4-23.8
			c13.2-12.6,20.5-29.2,20.5-46.8C965.1,481.8,959.5,466.4,949.6,455.3z"/>
		<path class="st2" d="M47,292.5c0,0,12.8,2.9,26.5,6.5c20.7,5.3,49.9,12,91.2,12c48,0,119.2-13.5,169.1-13.5
			c-3.1-5.5-8.3-13.2-8.3-13.2s118.2-15.8,168-12.5c-3.1-3.1-6.5-10-6.5-10c23.1,0,62.2-0.5,106.6,8c31.5,6,65.9,18.3,97.7,32.8
			c16.5,7.5,70.4,36.9,113.2,55c29.9,12.6,53.3,16.5,59.3,18c17.2,4.5,22,6.8,22,6.8l-4.8,16.5c0,0,56,17.5,73.2,37.8
			s21.5,58.1-4.8,84.3c-10.1,10.1-26.9,18.2-43.9,23.4c-11.1,3.4-23.2,5.8-32.7,7.7c-13.7,2.7-22.7,4.2-23.5,5.9
			c0,0-1.3,3.6-2.5,7.5c-1.8,5.8-4.7,13.4-12.7,21c-9.3,8.9-24.3,16.5-48.3,16.5c-37.4,0-59.2-24.5-87.2-52.5
			c-20-20-25.5-19-34-17.2c0,4.6-1.4,12.9,1.5,23.3c2.8,10,9.5,21.7,21.5,41.4c0,0-56.7,15.6-76,14.2c0,8.8-3.8,13-3.8,13
			c-10.8,2-28.8,4.2-45.2,4.2s-61.5-2.8-102.5-17.2c-8,11.2-16.9,20.1-16.9,20.1c-11.4-11.4-22.1-26.6-75.6-50.1
			s-103.2-41.2-103.2-46s12.9-13.5,12.9-17.6c0-1.6-3.4-1.1-10.7-3.5c-12.1-4.1-33.4-12.8-55.6-26.8c-25.2-16-34.8-26-52.5-36.8
			c14-4,31-12.6,34.8-20c-4.5-6.4-11.1-16.7-24.7-28c-11.5-9.6-28.9-21.3-48.3-32.5c-17.7-10.2-33.7-22.3-44.7-33.2
			c-8.7-8.7-13.8-16.7-16.8-22.5L47,292.5z"/>
		<g>
			<path class="st3" d="M866.5,409c-5.8-2.2-10.3-4-11-5.9c-1.4-3.8,7-7.5,7-13.1c0,0-20.7-3.3-48.4-13.3
				c-25.7-9.2-57.7-23.9-84.2-38.1c-59.8-31.8-120.7-66-222-64.7c0,5.3,11.7,6,9.7,12.7c-13.7-1.6-43.4-4.4-77.6-2.6
				c-39.2,2.1-82.8,8.9-92.4,8.9c0,0,3.7,2.7,7.9,5.3c5.5,3.3,11.8,5.1,11.8,11.4c0,0-41.7-4.3-117,7.3s-120,12.3-181.7-5.5
				c0,0,14.5,23,62,50.5s63,45.5,76.5,72c0,8-15.5,16.5-27,19c24.5,18.5,58.8,41,115.8,56.3c6,6-11.3,13.7-11.3,24.3
				c27.7,10.7,106,38,159.7,77.3c3.3-6,8.3-13.7,8.3-13.7c27.3,8.7,87.3,26.7,141,20.3c8,0-7.7-11.3-7.7-19.7c18,0,43,4,74-11
				c-12.3-21.7-18-35.7-14-65.7c15.7-7.3,31.6-11.9,74,36c5.7,6.5,12.4,11.6,17.9,15.6c14.2,10.5,26.5,13.8,37.7,15.1
				c19.1,2.2,34.5-4.6,43.7-14.1c4.6-4.8,6.9-11,8.7-15.7c0,0-11.3,0.4-24-5.9c34-9.3,61-13,96.3-26c35.3-13,47-29,47-53.3
				C947.1,432.7,906.3,423.8,866.5,409z M803.5,548.7c0,0-25.3-14.3-25.3-37.3c0-11.3,10.7-20.7,25.3-20.7c14.7,0,20.3,15,20.3,29
				S813.1,545,803.5,548.7z"/>
		</g>
		<path class="st2" d="M435,577c-2.5,4.7-3.4,9.8-0.1,7.5s9.2-8.8,14.6-14.2c19.6-19.6,119-116.5,248.5-57.3
			c-3.8-11.2-18.2-28.5-42.8-37.8c23,7.8,67.5,10,99.2-9.8c7-5.2-19.2-4-23.2-11.8c13.1,6.3,39,3.8,45.5-17c12,1.8,20.5-0.2,25-4.8
			c-5.5-1-24.8-7.2-32.2-10.2c-3.8,6.5-15.4,17.5-32.5,6.5c-10.5-6.8-7.8-22-6-27.2c-3.9-3.9-15.8-15.2-15.8-15.2
			c-2.2,2.2,3.1,12.4,8.2,16.5c-1.2,4.5-1.5,11.8,0.5,17c-8.6-5.6-17.5-9.5-28.8-12.8c2.2-2.2,6-7.2,5.8-12.8
			c-0.4-13.2-18.1-29.9-95.9-22.2c31.8-10.8,74.2-15.8,102.3,8.2c-3.3-10.2-5-13.2-5-16.7c9.8,11.7,31.8,30.1,54.7,42.9
			c17.1,9.5,34.7,15.5,48.2,15.5c15.8,0,32-9.3,37.7-20.2c-11.7-2.7-35.2-8.1-60.3-19c-35.9-15.6-75.2-38.1-88-44.3
			c-25.7-12.5-66.2-31.5-128.3-31.5c-0.7,2.5,6.3,6.2,6.3,12c-13.8-2.8-32.8-9.5-74.3-9.5s-55.8,2.5-84.5,2.5
			c14.8,9.3,45.3,19.7,71.2,27.4c-19.6-3.4-42.7-5.9-81.7-6.9c-44.3-1.1-93.4,3.3-130,7.3c-41,4.5-57,7.3-117.8,11.3
			c0,0,23,17,45.5,30.5s50.5,38.5,50.5,49.5c0,5.5-20,11.5-20,15.5s189.5-82.5,307-56.5c-47-3-215,27.5-282,81
			c17.5,9,58.5,26,72.5,26c12.5,0-13.5,13-6,13c3.2,0,29.3-12.1,63.2-25.7c29.9-12,67.6-26.2,109.7-33.3c29.3-4.9,60.7-5.9,93.1-2.4
			c-40.5,0-169.2,9.7-255.2,86.3C347.5,544,415.1,564.7,435,577z"/>
		<path class="st13" d="M550.5,604c0,0-6.8-2.3-16.5-4.5c-19.5-4.4-48.8-14.7-60.8-18.5c16-23,75.7-80.7,166.3-63.3
			c-8.7,8.7-14.3,21-8.7,63.7c-17.7,3.7-36.3,1.7-49.3-1.3c0-15,19-30,19-40c-17.3,0-38,15-44.2,28.7S550.5,594.3,550.5,604z"/>
		<path class="st13" d="M693.5,490.3c0,0,29,62,60,78s49.3,6.3,59.3,1.7c-13.7-9.3-59-39.3-34.3-70c-14,9-30,36.7,17,66
			c-9,3.1-22.6,3.3-34.3-6.8c-15.2-13-28.4-38.3-36.7-44.8c0.9-11.3,17.7-37.1,63-37.1c42.3,0,59,20.1,59,47
			c51-12.7,82.3-25,82.3-52c0-31.3-50-47.7-92.7-51.7C798.8,450,756.1,483.3,693.5,490.3z"/>
		<g>
			<path class="st3" d="M801.5,498.9c-8,0-17.5,5.1-17.5,12.8c0,20.8,17.5,31,17.5,31c8-3,16.2-12.2,16.2-21.9
				C817.7,506.7,809.5,498.9,801.5,498.9z M802.2,540c-10.8-6.5-15.2-22-15.2-22c12.2-4.8,20.2,4.2,22.2,17
				C809.2,535,806.6,537.6,802.2,540z"/>
		</g>
		<path class="st1" d="M375.5,355c-61.7-15.7-171.3,10-171.3,10C279.6,356.4,352.5,352.3,375.5,355z"/>
		<path class="st3" d="M299.8,382.3c69.3-11,157.7-19.7,238.7,7.2c-21.4-8.9-55-24.8-118-24.8C347,364.7,299.8,382.3,299.8,382.3z"
			/>
		<path class="st1" d="M484.5,420.7c-50-6.3-112,14.3-112.4,14.5c-20.8,8.7-39.2,18.6-51.9,29.5C351.8,454,428.5,420.7,484.5,420.7z
			"/>
		<path class="st1" d="M569.1,442.1C569.1,442.1,569.1,442.1,569.1,442.1c-37.6-18.1-97.8-9.8-126.8-3
			c-18.9,4.5-51.2,14.9-51.2,14.9h0c-3.4,1.6-6.6,3-9.6,4.2C416.7,453.2,499.4,426.2,569.1,442.1z"/>
		<path class="st1" d="M560.5,470c-26-7.5-62.3-0.5-85.1,4.5c-22.2,7.7-43.3,17.1-58.3,28.5C451.8,491.7,511.1,470,560.5,470z"/>
		<path class="st1" d="M658.1,490.1c-14.6-7.4-37.2-13.3-60-13.3c-56,0-107.3,26.2-107.3,26.2C523.9,494.5,595.4,468.6,658.1,490.1z
			"/>
		<path class="st0" d="M589,448c-6.3-0.7-12.6-1.2-18.9-1.5L589,448z"/>
		<g>
			<path class="st13" d="M299.8,382.3c12.3-12.3,38-19.7,75.7-27.3c-23-2.7-95.9,1.4-171.3,10c147-38,293.3-23.7,293.3-23.7
				l-12.5-2.6c-19.6-3.4-42.7-5.9-81.7-6.9c-44.3-1.1-93.4,3.3-130,7.3c-41,4.5-57,7.3-117.8,11.3c0,0,23,17,45.5,30.5
				s50.5,38.5,50.5,49.5C290,406.1,358,390.1,404.1,383c62.3-9.6,90.1-3.5,134.3,6.5C457.5,362.7,369.1,371.3,299.8,382.3z"/>
			<path class="st13" d="M664.6,492.5c-2.1-0.9-4.3-1.7-6.5-2.4c-62.7-21.5-134.2,4.4-167.3,12.9c18.3-14.7,44-24.3,69.7-33
				c-49.3,0-108.7,21.7-143.3,33c15-11.4,36-20.8,58.3-28.5C528.7,456.1,589,448,589,448c-40.5,0-169.2,9.7-255.2,86.3
				c13.7,9.7,81.3,30.3,101.2,42.7c36.8-69,128.2-91,171.5-91c43.3,0,87,22.5,87,22.5C685.2,502.7,673.5,496.1,664.6,492.5z"/>
			<path class="st13" d="M569.9,446.5c0.1,0,0.1,0,0.2,0L569.9,446.5L569.9,446.5z"/>
			<path class="st13" d="M381.5,458.3c3-1.2,6.3-2.7,9.6-4.2c24-11.1,56-29.1,93.4-33.4c-56,0-132.7,33.3-164.3,44
				c12.8-10.9,31.2-20.8,51.9-29.5c69.8-29.3,166.4-45.6,166.4-45.6c-47-3-215,27.5-282,81c17.5,9,58.5,26,72.5,26
				c98.2-49.5,187.8-61.8,260-48.5c-6.5-2.4-13.1-4.3-19.8-5.9C499.4,426.2,416.7,453.2,381.5,458.3z"/>
		</g>
		<path class="st1" d="M635.3,373.2c0,0,55,0.8,55,21c0,8-10.6,12.7-10.6,12.7c18.1,4.1,30.5,8.9,38,16.4
			c-3.6,1.1-13.8,5.2-13.8,5.2s-5.8-11.3-26.7-18.3c-6.8-2.3-21.9-6.7-30.1-6.7c18.4-2,26.6-4,26.6-10.2S658,377.2,635.3,373.2z"/>
		<path class="st1" d="M710,431.2c0,0,5.3,1,12.6-6.3c5.5,6.3,21.9,16.8,38.1,10.2C752.2,442.1,728.7,445.8,710,431.2z"/>
		<path class="st2" d="M745.5,414.5c0,0-2.2,9.9-0.8,11.4s8.2,0.2,8.2-5.2C752.9,415.2,748,413.8,745.5,414.5z"/>
		<path class="st3" d="M860,434.4c0,0-0.9,11.7-24.4,6.9c2.1,2.1,9.2,6.9,18.5,9.3c12.8,3.3,28.5,3.5,28.5-1.5
			C882.6,443,867.3,435.5,860,434.4z"/>
		<path class="st1" d="M525.2,562.8c0,0,33.8-33.5,77.2-29.8C583.2,525,546.7,524,525.2,562.8z"/>
		<g>
			<path class="st14" d="M335.6,288.9c0,0,2.4-0.4,6.7-1c4.3-0.6,10.4-1.5,17.7-2.5c3.7-0.5,7.7-1,11.9-1.5
				c4.2-0.5,8.7-1.1,13.3-1.5c4.6-0.5,9.4-1,14.2-1.5c4.8-0.4,9.8-0.9,14.7-1.4c4.9-0.4,9.9-0.8,14.7-1.1c4.9-0.3,9.6-0.7,14.3-0.9
				c4.6-0.2,9.1-0.4,13.4-0.6c2.1-0.1,4.2-0.2,6.2-0.2c2,0,3.9,0,5.8,0c3.7,0,7.1-0.1,10.1,0c3,0.1,5.6,0.2,7.8,0.3
				c4.3,0.3,6.8,0.5,6.8,0.5s-2.5,0-6.8-0.1c-2.2,0-4.8,0-7.8,0.1c-3,0.1-6.4,0.2-10.1,0.4c-1.8,0.1-3.8,0.1-5.8,0.2
				c-2,0-4.1,0.2-6.2,0.3c-4.2,0.3-8.7,0.6-13.3,0.8c-4.6,0.2-9.4,0.7-14.2,1c-4.8,0.4-9.8,0.7-14.7,1.2c-4.9,0.4-9.8,0.8-14.7,1.2
				c-4.8,0.5-9.6,0.9-14.2,1.3c-9.2,0.9-17.8,1.7-25.2,2.4c-7.4,0.7-13.5,1.3-17.8,1.7C338.1,288.7,335.6,288.9,335.6,288.9z"/>
			<path class="st14" d="M58.3,301.3c0,0,4.4,1,12,2.8c1.9,0.5,4,1,6.3,1.5s4.8,1.1,7.5,1.7c5.3,1.2,11.4,2.3,18,3.6
				c3.3,0.5,6.8,1.1,10.4,1.6c3.6,0.5,7.3,0.9,11.1,1.4c3.8,0.3,7.8,0.7,11.8,1.1c4,0.3,8.2,0.5,12.4,0.7c2.1,0.2,4.2,0.2,6.4,0.2
				c2.1,0,4.3,0.1,6.4,0.1c1.1,0,2.2,0,3.3,0.1c1,0,2.2,0,3.3-0.1c2.2-0.1,4.4-0.1,6.6-0.2c2.2-0.1,4.4-0.1,6.7-0.2l3.3-0.1l3.3-0.3
				c4.5-0.3,8.9-0.7,13.4-1c4.5-0.3,8.9-0.8,13.4-1.2c4.5-0.4,8.9-0.9,13.3-1.3c8.8-0.9,17.5-1.9,25.8-2.8
				c8.4-0.9,16.5-1.8,24.2-2.5c7.7-0.7,15-1.5,21.7-1.8c3.4-0.2,6.6-0.4,9.7-0.6c3.1-0.2,6-0.4,8.7-0.4c5.5-0.1,10.3-0.2,14.2-0.3
				c2-0.1,3.7,0,5.3,0c1.5,0,2.8,0,3.9,0.1c2.1,0,3.2,0.1,3.2,0.1s-1.1,0-3.2,0.1c-2.1,0.1-5.2,0-9.1,0.2c-3.9,0.2-8.7,0.4-14.2,0.6
				c-2.7,0.1-5.6,0.3-8.7,0.6c-3.1,0.3-6.3,0.5-9.6,0.8c-6.7,0.5-14,1.4-21.7,2.1c-7.7,0.8-15.8,1.8-24.2,2.7
				c-8.4,0.9-17,1.9-25.8,2.9c-4.4,0.5-8.8,0.9-13.3,1.4c-4.5,0.4-8.9,1-13.4,1.3c-4.5,0.3-9,0.6-13.5,1l-3.4,0.2l-3.3,0.1
				c-2.2,0.1-4.4,0.1-6.7,0.2c-2.2,0.1-4.4,0.1-6.6,0.2c-1.1,0-2.2,0.1-3.3,0.1c-1.1,0-2.2,0-3.3-0.1c-2.2,0-4.3-0.1-6.5-0.1
				c-2.1,0-4.3-0.1-6.4-0.2c-4.2-0.3-8.4-0.4-12.4-0.8c-4-0.4-8-0.8-11.9-1.2c-3.8-0.5-7.6-1.1-11.2-1.6c-3.6-0.6-7.1-1.2-10.4-1.8
				c-3.3-0.6-6.5-1.3-9.5-1.9c-3-0.6-5.8-1.4-8.5-2c-2.7-0.6-5.2-1.3-7.4-1.9c-2.3-0.6-4.4-1.2-6.3-1.7
				C62.6,302.5,58.3,301.3,58.3,301.3z"/>
			<path class="st14" d="M198.1,427.8c0,0-1.4-1.9-3.9-5.2c-1.3-1.7-2.8-3.7-4.7-5.9c-0.9-1.1-1.9-2.3-3-3.5
				c-1.1-1.2-2.2-2.5-3.5-3.7c-1.2-1.3-2.5-2.6-4-3.9c-0.7-0.7-1.4-1.3-2.1-2c-0.7-0.7-1.5-1.3-2.3-2c-0.8-0.7-1.6-1.3-2.4-2
				c-0.8-0.6-1.7-1.3-2.5-1.9c-1.7-1.3-3.4-2.7-5.2-4c-0.9-0.7-1.8-1.4-2.7-2.1c-0.9-0.6-1.9-1.3-2.8-1.9c-1.9-1.3-3.8-2.6-5.7-4
				c-1-0.7-1.9-1.3-2.9-2c-1-0.7-2-1.3-3-1.9c-2-1.3-4-2.6-6-3.8c-2-1.3-4-2.6-6-3.8c-2-1.2-4-2.4-6.1-3.7c-4-2.4-8-4.8-11.8-7.1
				c-3.8-2.3-7.5-4.7-10.8-7.1c-1.7-1.2-3.3-2.3-4.9-3.5c-1.5-1.2-3.1-2.2-4.5-3.4c-1.4-1.1-2.7-2.2-4-3.2c-1.2-1.1-2.4-2.1-3.5-3
				c-1.1-0.9-2.1-1.9-3-2.7c-0.9-0.9-1.8-1.6-2.5-2.3c-1.5-1.4-2.6-2.6-3.4-3.4c-0.8-0.8-1.2-1.2-1.2-1.2s1.8,1.6,4.9,4.4
				c0.8,0.7,1.7,1.4,2.6,2.2c1,0.8,2,1.7,3.2,2.6c1.1,0.9,2.4,1.8,3.6,2.8c1.3,1,2.7,2,4.1,3.1c1.4,1.1,3,2.1,4.5,3.2
				c1.6,1.1,3.2,2.2,4.9,3.3c3.4,2.3,7.1,4.5,10.9,6.8c3.9,2.3,7.8,4.6,11.9,7c2,1.2,4.1,2.4,6.1,3.6c1,0.6,2,1.2,3,1.9l3,1.9
				c2,1.3,4,2.6,6,3.9c1,0.7,2,1.3,3,2c1,0.7,1.9,1.4,2.9,2.1c1.9,1.4,3.8,2.7,5.7,4.1c0.9,0.7,1.9,1.3,2.8,2
				c0.9,0.7,1.8,1.4,2.7,2.1c1.8,1.4,3.5,2.7,5.2,4.1c0.8,0.7,1.7,1.3,2.5,2c0.8,0.7,1.6,1.4,2.3,2.1c0.8,0.7,1.5,1.4,2.2,2.1
				c0.7,0.7,1.4,1.4,2.1,2.1c1.4,1.3,2.7,2.7,3.9,4c2.4,2.6,4.5,5.2,6.3,7.5c1.8,2.3,3.2,4.4,4.4,6.1c1.2,1.7,2.1,3.1,2.7,4
				C197.7,427.3,198.1,427.8,198.1,427.8z"/>
			<path class="st14" d="M275.5,530.8c0,0,0.4-0.4,1.1-1.2c0.7-0.8,1.8-2,3-3.5c1.2-1.6,2.7-3.6,3.2-6.2c0.2-1.3,0.1-2.8-0.5-4.1
				c-0.6-1.3-1.8-2.3-3.3-3c-1.5-0.7-3.2-0.9-5-1.3c-1.8-0.3-3.7-0.9-5.6-1.4c-1.9-0.6-3.8-1.2-5.7-2c-1-0.4-2-0.7-3-1.1
				c-1-0.4-2-0.8-3-1.2c-1-0.4-2-0.8-3-1.2c-1-0.4-2-0.9-3-1.3c-2-0.9-4.1-1.7-6.1-2.7c-2-1-4.1-1.9-6.2-2.9c-2-1-4.1-2.1-6.1-3.1
				c-2-1.1-4-2.2-6-3.3c-1-0.6-2-1.1-3-1.7c-1-0.6-1.9-1.2-2.9-1.8c-1.9-1.2-3.8-2.4-5.7-3.5c-1.9-1.2-3.7-2.4-5.5-3.6
				c-1.8-1.2-3.6-2.3-5.2-3.5c-1.7-1.2-3.3-2.4-4.9-3.5c-3.2-2.3-6.2-4.6-8.9-6.7c-2.7-2.1-5.2-4-7.4-5.8c-2.2-1.7-4.1-3.2-5.7-4.4
				c-3.2-2.5-5-3.9-5-3.9s1.9,1.3,5.2,3.6c1.6,1.1,3.6,2.5,5.9,4.1c2.3,1.6,4.9,3.4,7.6,5.4c1.4,1,2.9,2,4.4,3.1
				c1.5,1.1,3.1,2.2,4.7,3.3c3.2,2.2,6.7,4.5,10.3,6.8c1.8,1.1,3.6,2.4,5.5,3.5c1.9,1.1,3.8,2.3,5.7,3.4c1,0.6,1.9,1.2,2.9,1.7
				c1,0.5,2,1.1,3,1.6c2,1.1,4,2.2,6,3.3c2,1,4.1,2.1,6.1,3.1c2,1,4.1,2,6.1,2.9c2,1,4.1,1.9,6.1,2.8c1,0.4,2,0.9,3,1.3
				c1,0.4,2,0.8,3,1.2c1,0.4,2,0.8,2.9,1.2c1,0.4,1.9,0.8,2.9,1.1c1.9,0.8,3.8,1.4,5.7,2.1c1.9,0.6,3.6,1.2,5.4,1.6
				c1.8,0.4,3.6,0.8,5.2,1.6c1.6,0.8,3,2,3.7,3.6c0.2,0.4,0.3,0.8,0.4,1.2c0.1,0.4,0.2,0.8,0.2,1.2l0,0.6c0,0.2,0,0.4,0,0.6
				c0,0.4-0.1,0.7-0.2,1.1c-0.3,1.4-0.9,2.6-1.6,3.7c-0.7,1-1.4,1.9-2,2.7c-1.3,1.5-2.5,2.6-3.2,3.3
				C275.9,530.4,275.5,530.8,275.5,530.8z"/>
			<path class="st14" d="M455.4,608.6c-1.9,2.6-3.8,5.2-5.7,7.8c-0.5,0.7-1,1.3-1.5,1.9l-1.5,1.9l-3.1,3.7l-0.3,0.4l-0.4-0.4
				c-2.2-2.1-4.3-4.3-6.6-6.4c-1.1-1-2.2-2.1-3.4-3.1l-3.5-2.9l-1.8-1.5l-1.8-1.3l-3.7-2.7l-1.8-1.4c-0.6-0.4-1.3-0.8-1.9-1.3
				l-3.8-2.5c-1.3-0.8-2.5-1.7-3.8-2.5l-4-2.3c-2.7-1.5-5.3-3.1-7.9-4.5l-8.1-4.2l-4.1-2.1c-1.4-0.7-2.8-1.3-4.1-2l-8.3-3.9
				l-4.1-1.9c-1.4-0.6-2.8-1.2-4.2-1.8c-5.6-2.4-11.2-4.8-16.8-7.3c-5.6-2.5-11.2-4.9-16.8-7.4c-5.6-2.5-11.2-5-16.7-7.5
				c5.7,2.2,11.4,4.5,17.1,6.7c5.7,2.3,11.3,4.6,17,6.9c5.7,2.3,11.3,4.6,17,7c1.4,0.6,2.8,1.2,4.2,1.8l4.2,1.9l8.4,3.8
				c1.4,0.6,2.8,1.2,4.2,1.9l4.1,2.1l8.2,4.2c2.7,1.5,5.3,3.1,8,4.6l4,2.3c1.3,0.8,2.6,1.7,3.8,2.5l3.8,2.5c0.6,0.4,1.3,0.8,1.9,1.3
				l1.8,1.4l3.7,2.8l1.8,1.4l1.7,1.5l3.5,3c1.2,1,2.2,2.1,3.3,3.2c2.2,2.1,4.3,4.4,6.4,6.6l-0.7,0l3.2-3.6l1.6-1.8
				c0.5-0.6,1.1-1.2,1.6-1.8C451.3,613.5,453.3,611,455.4,608.6z"/>
			<path class="st14" d="M604.3,619.6c0,0-2.2,0.4-6.1,1.1c-1,0.2-2,0.4-3.2,0.5c-1.2,0.2-2.5,0.3-3.8,0.5c-2.7,0.4-5.8,0.9-9.2,1.1
				c-1.7,0.2-3.4,0.3-5.3,0.5c-0.9,0.1-1.8,0.2-2.8,0.2c-0.9,0-1.9,0.1-2.9,0.1c-1.9,0.1-3.9,0.2-6,0.2c-1,0-2,0.1-3.1,0.1
				c-1,0-2.1,0-3.1,0c-4.2,0-8.6-0.2-13-0.5c-2.2-0.1-4.5-0.3-6.7-0.5c-2.2-0.2-4.5-0.4-6.7-0.6c-4.5-0.6-9-1.1-13.4-1.7
				c-4.4-0.7-8.7-1.5-12.9-2.2c-4.2-0.8-8.1-1.7-11.9-2.5c-3.8-0.7-7.3-1.9-10.6-2.7c-1.6-0.5-3.2-0.9-4.7-1.3
				c-0.7-0.2-1.5-0.4-2.2-0.6c-0.7-0.2-1.4-0.5-2-0.7c-2.6-0.9-4.9-1.7-6.7-2.3c-3.7-1.3-5.8-2.1-5.8-2.1s2.2,0.6,6,1.7
				c1.9,0.5,4.2,1.2,6.8,2c0.7,0.2,1.3,0.4,2,0.6c0.7,0.2,1.4,0.3,2.2,0.5c1.5,0.4,3.1,0.7,4.7,1.1c1.6,0.4,3.3,0.8,5.1,1.2
				c0.9,0.2,1.8,0.5,2.7,0.6c0.9,0.2,1.9,0.4,2.8,0.5c3.8,0.7,7.8,1.5,11.9,2.3c4.2,0.6,8.5,1.3,12.8,2c4.4,0.5,8.8,1.1,13.3,1.6
				c2.2,0.2,4.5,0.4,6.7,0.6c2.2,0.2,4.4,0.5,6.6,0.6c4.4,0.2,8.7,0.6,13,0.7c1.1,0,2.1,0.1,3.1,0.1c1,0,2,0,3.1,0
				c2,0,4-0.1,5.9-0.1c1,0,1.9,0,2.9,0c0.9-0.1,1.9-0.1,2.8-0.2c1.8-0.1,3.6-0.2,5.2-0.3c3.4-0.2,6.4-0.5,9.2-0.7
				c1.4-0.1,2.6-0.2,3.8-0.3c1.2-0.1,2.3-0.3,3.2-0.4C602.1,619.9,604.3,619.6,604.3,619.6z"/>
			<path class="st14" d="M658.8,533c0,1.4,0,2.7,0,4.1c0,1.4-0.1,2.7,0,4.1c0,1.4,0.1,2.7,0.2,4.1c0.1,1.4,0.2,2.7,0.4,4l0.3,2
				l0.4,2c0.2,1.3,0.6,2.6,1,3.9c0.4,1.3,0.9,2.6,1.3,3.9c0.5,1.3,1,2.5,1.5,3.8c0.5,1.2,1.1,2.5,1.7,3.7c0.6,1.2,1.2,2.4,1.8,3.6
				c0.6,1.2,1.3,2.4,1.9,3.6c0.6,1.2,1.3,2.4,2,3.6c1.3,2.4,2.7,4.7,4.1,7.1c1.4,2.4,2.8,4.7,4.2,7l0.7,1.1l-1.3,0.3
				c-3,0.8-6,1.6-9,2.3c-3,0.7-6,1.5-9,2.1c-3,0.7-6,1.4-9.1,2l-4.5,0.9c-1.5,0.3-3,0.6-4.6,0.9l-4.6,0.8l-4.6,0.7l-4.6,0.7
				l-4.6,0.5c-1.5,0.1-3.1,0.4-4.6,0.4l-4.6,0.1c-1.6,0-3.1-0.1-4.6-0.3l-4.6-0.5l4.6,0.2c1.5,0.1,3.1,0.1,4.6,0l4.6-0.4
				c1.5-0.1,3-0.4,4.6-0.6l4.6-0.7l4.5-0.8l4.5-0.8l4.5-1l4.5-0.9l4.5-1l4.5-1l4.5-1.1c3-0.7,6-1.4,9-2.2l9-2.3l-0.6,1.5
				c-1.4-2.4-2.8-4.7-4.2-7.1l-2.1-3.6l-2-3.6c-0.7-1.2-1.3-2.4-1.9-3.6c-0.6-1.2-1.3-2.4-1.9-3.7c-0.6-1.2-1.2-2.5-1.7-3.7
				c-0.5-1.3-1.1-2.5-1.6-3.8c-0.5-1.3-1-2.6-1.4-3.9c-0.4-1.3-0.8-2.6-1.1-4c-0.3-1.4-0.7-2.7-0.8-4.1l-0.3-2l-0.2-2.1
				c-0.2-1.4-0.2-2.8-0.2-4.1c0-1.4,0-2.7,0.1-4.1c0-1.4,0.1-2.7,0.3-4.1C658.6,535.7,658.7,534.4,658.8,533z"/>
			<path class="st14" d="M866.5,547.1c-4,1-8.1,1.9-12.1,3c-1,0.3-2,0.5-3,0.9l-1.4,0.5c-0.5,0.2-1,0.4-1.4,0.6
				c-0.5,0.2-0.9,0.4-1.3,0.7c-0.4,0.3-0.8,0.5-1.1,0.9c-0.2,0.2-0.3,0.3-0.5,0.5c-0.2,0.2-0.3,0.3-0.4,0.6
				c-0.3,0.4-0.4,0.8-0.7,1.3l0-0.1l-3,9.3c-0.5,1.5-1.1,3.1-1.7,4.6c-0.3,0.8-0.7,1.5-1.1,2.3l-0.6,1.1l-0.6,1.1
				c-0.4,0.7-0.8,1.4-1.3,2.1c-0.5,0.7-0.9,1.4-1.5,2l-1.6,1.9c-0.6,0.6-1.2,1.2-1.7,1.8c-0.3,0.3-0.6,0.6-0.9,0.9l-0.9,0.8
				l-0.9,0.8l-1,0.8c-0.7,0.5-1.3,1.1-2,1.5c-0.7,0.5-1.3,1-2.1,1.4c-1.4,0.9-2.9,1.7-4.3,2.4l-2.2,1.1c-0.8,0.3-1.5,0.6-2.3,0.9
				c-0.8,0.3-1.6,0.6-2.3,0.8c-0.8,0.3-1.6,0.5-2.4,0.7c-1.6,0.5-3.2,0.8-4.8,1.2c-1.6,0.3-3.2,0.6-4.8,0.8
				c-0.8,0.1-1.6,0.2-2.4,0.3c-0.8,0.1-1.6,0.2-2.4,0.2c-1.6,0.1-3.3,0.2-4.9,0.2c-1.6,0.1-3.3,0-4.9-0.1c1.6-0.1,3.2-0.2,4.9-0.3
				c1.6-0.1,3.2-0.3,4.8-0.5c1.6-0.2,3.2-0.5,4.8-0.8c1.6-0.3,3.2-0.7,4.7-1c1.5-0.4,3.1-0.8,4.6-1.4c0.8-0.2,1.5-0.5,2.3-0.8
				c0.7-0.3,1.5-0.5,2.2-0.9c0.7-0.3,1.5-0.6,2.2-1l2.1-1.1c1.4-0.8,2.8-1.6,4.1-2.4c0.7-0.4,1.3-0.9,2-1.4c0.7-0.5,1.3-0.9,1.9-1.4
				l0.9-0.7l0.9-0.8l0.9-0.8c0.3-0.2,0.5-0.6,0.8-0.8l1.6-1.7l1.5-1.8c0.5-0.6,0.9-1.3,1.4-1.9c0.5-0.6,0.9-1.3,1.3-2l0.6-1l0.5-1.1
				c0.4-0.7,0.7-1.4,1-2.1c0.3-0.7,0.7-1.4,0.9-2.2c0.3-0.7,0.6-1.5,0.8-2.3c1.1-3.1,2.1-6.1,3.2-9.2l0,0l0,0c0.2-0.5,0.5-1,0.8-1.5
				c0.2-0.2,0.3-0.5,0.5-0.7c0.2-0.2,0.4-0.4,0.6-0.6c0.4-0.4,0.9-0.7,1.4-1c0.5-0.3,1-0.5,1.5-0.7c0.5-0.2,1-0.4,1.5-0.5l1.5-0.4
				c1-0.3,2-0.5,3.1-0.7c2-0.4,4.1-0.8,6.1-1.1C862.4,547.7,864.4,547.4,866.5,547.1z"/>
			<path class="st14" d="M879.2,404.4c0,0,3.2,0.9,8.6,2.7c5.5,1.9,13.3,4.5,22.4,8.4c4.6,1.9,9.5,4.1,14.6,6.6
				c5.1,2.5,10.4,5.4,15.5,8.9c2.6,1.8,5.1,3.7,7.4,6c0.6,0.6,1.2,1.1,1.7,1.7l0.8,0.9c0.3,0.3,0.5,0.6,0.8,0.9l0.8,0.9l0.7,1
				c0.5,0.7,1,1.3,1.4,2c3.6,5.5,6.2,11.8,7.7,18.3c1.4,6.5,1.7,13.3,1,19.9c-0.8,6.5-2.7,12.8-5.4,18.5c-1.4,2.8-2.9,5.5-4.7,7.9
				c-0.8,1.2-1.8,2.4-2.7,3.5c-1,1.1-1.9,2.2-2.9,3.2c-0.5,0.5-0.9,1-1.5,1.5c-0.5,0.5-1,0.9-1.6,1.4c-0.5,0.5-1,0.9-1.5,1.4
				c-0.6,0.4-1.1,0.8-1.6,1.2c-1.1,0.8-2.1,1.6-3.2,2.3c-1.1,0.7-2.2,1.4-3.2,2c-1,0.7-2.1,1.2-3.2,1.8c-1,0.6-2,1.2-3.1,1.7
				c-2,1-4,1.9-5.8,2.7c-1.9,0.8-3.6,1.5-5.2,2.2c-1.6,0.6-3.1,1.1-4.5,1.6c-0.7,0.2-1.3,0.5-1.9,0.7c-0.6,0.2-1.2,0.4-1.7,0.5
				c-1.1,0.3-2,0.6-2.7,0.8c-1.5,0.4-2.3,0.7-2.3,0.7s0.8-0.3,2.2-0.8c0.7-0.3,1.6-0.6,2.7-1c0.5-0.2,1.1-0.4,1.7-0.6
				c0.6-0.2,1.2-0.5,1.9-0.8c1.3-0.5,2.8-1.1,4.4-1.8c1.6-0.7,3.3-1.5,5.1-2.3c1.8-0.9,3.7-1.9,5.7-2.9c1-0.5,2-1.1,3-1.7
				c1-0.6,2.1-1.1,3.1-1.9c1-0.7,2.1-1.4,3.1-2.1c1.1-0.7,2-1.5,3.1-2.3c0.5-0.4,1-0.8,1.6-1.2c0.5-0.5,1-0.9,1.5-1.4
				c0.5-0.5,1-0.9,1.5-1.4c0.5-0.4,0.9-1,1.4-1.5c1-1,1.9-2.1,2.8-3.2c0.9-1.1,1.8-2.3,2.6-3.5c1.6-2.4,3.2-5,4.5-7.7
				c2.6-5.5,4.4-11.6,5.1-17.9c0.7-6.3,0.4-12.9-1.1-19.2c-1.4-6.3-3.8-12.4-7.3-17.8c-0.4-0.7-0.9-1.3-1.3-2l-0.7-1l-0.8-0.9
				c-0.2-0.3-0.5-0.7-0.7-0.9l-0.8-0.9c-0.5-0.6-1.1-1.1-1.6-1.7c-2.2-2.2-4.7-4.1-7.2-5.8c-5-3.5-10.2-6.5-15.2-9.1
				c-5-2.6-9.8-4.9-14.3-6.9c-9-4-16.7-7-22.1-9C882.3,405.5,879.2,404.4,879.2,404.4z"/>
			<path class="st14" d="M497.8,267.7c0,0,1.6,0,4.5,0c3,0,7.3-0.1,12.8,0c1.4,0,2.8,0,4.4,0.1c1.5,0,3.1,0.1,4.8,0.1
				c3.3,0.1,6.9,0.2,10.7,0.4c3.8,0.2,7.9,0.4,12.2,0.7c2.1,0.2,4.3,0.3,6.6,0.5c2.3,0.2,4.6,0.5,6.9,0.7c2.3,0.3,4.8,0.5,7.2,0.8
				c2.4,0.3,4.9,0.7,7.4,1c1.3,0.2,2.5,0.3,3.8,0.5c1.3,0.2,2.6,0.4,3.9,0.6c2.6,0.4,5.2,0.9,7.9,1.3c1.3,0.2,2.7,0.5,4,0.8
				c1.3,0.3,2.7,0.6,4.1,0.8c1.4,0.3,2.7,0.6,4.1,0.8c1.4,0.3,2.7,0.7,4.1,1c2.8,0.7,5.6,1.3,8.4,2.1c2.8,0.8,5.6,1.6,8.5,2.4
				c11.3,3.4,22.9,7.2,34.5,11.7c1.5,0.6,2.9,1.1,4.4,1.7c1.5,0.6,2.9,1.2,4.3,1.8c2.9,1.2,5.8,2.4,8.7,3.6c2.9,1.3,5.8,2.5,8.6,3.8
				l4.3,1.9l4.3,2.1c11.2,5.6,22.5,11.3,33.6,16.9c2.8,1.4,5.5,2.8,8.2,4.2c2.7,1.4,5.5,2.7,8.2,4.1c5.4,2.7,10.8,5.4,16.1,8
				c10.7,5.1,20.8,10.2,30.7,14.5c2.5,1.1,4.9,2.2,7.3,3.3c2.4,1.1,4.7,2.2,7.1,3.1c2.4,1,4.7,1.9,6.9,2.8c2.3,0.9,4.5,1.7,6.8,2.5
				c8.9,3.2,17.1,5.8,24.5,7.8c7.4,2,13.9,3.4,19.3,4.7c2.7,0.7,5,1.4,7.1,2c2.1,0.6,3.8,1.1,5.2,1.6c2.8,0.9,4.3,1.4,4.3,1.4
				s-1.5-0.4-4.3-1.3c-1.4-0.4-3.2-0.9-5.2-1.4c-2.1-0.5-4.4-1.2-7.1-1.9c-5.4-1.2-11.9-2.5-19.4-4.3c-7.5-1.9-15.8-4.3-24.7-7.4
				c-2.2-0.8-4.5-1.6-6.8-2.5c-2.3-0.9-4.6-1.8-7-2.8c-2.4-0.9-4.7-2-7.2-3c-2.4-1.1-4.9-2.1-7.3-3.2c-10-4.2-20.2-9.2-30.9-14.3
				c-5.3-2.6-10.7-5.3-16.1-8c-2.7-1.4-5.5-2.7-8.2-4.1c-2.7-1.4-5.5-2.8-8.3-4.2c-11-5.6-22.3-11.2-33.6-16.8l-4.2-2.1l-4.3-1.9
				c-2.9-1.3-5.7-2.5-8.6-3.8c-2.9-1.2-5.8-2.4-8.7-3.6c-1.4-0.6-2.9-1.2-4.3-1.8c-1.4-0.6-2.9-1.1-4.3-1.7
				c-11.5-4.5-23.1-8.4-34.3-11.8c-2.8-0.8-5.6-1.6-8.4-2.4c-2.8-0.8-5.6-1.4-8.3-2.1c-1.4-0.3-2.7-0.7-4.1-1
				c-1.4-0.3-2.7-0.6-4.1-0.9c-1.4-0.3-2.7-0.6-4-0.9c-1.3-0.3-2.7-0.6-4-0.8c-2.7-0.5-5.3-1-7.9-1.4c-1.3-0.2-2.6-0.5-3.8-0.7
				c-1.3-0.2-2.5-0.4-3.8-0.6c-2.5-0.4-5-0.7-7.4-1.1c-2.4-0.3-4.8-0.6-7.2-0.9c-2.3-0.3-4.6-0.6-6.9-0.8c-2.2-0.2-4.4-0.4-6.6-0.6
				c-4.3-0.4-8.3-0.7-12.2-0.9c-3.8-0.3-7.4-0.4-10.7-0.6c-1.7-0.1-3.2-0.2-4.8-0.2c-1.5,0-3-0.1-4.3-0.1c-2.8-0.1-5.2-0.2-7.3-0.2
				c-2.1,0-4-0.1-5.4-0.1C499.4,267.7,497.8,267.7,497.8,267.7z"/>
			<path class="st15" d="M304.5,518.3l0.4-1.1c0.1-0.4,0.3-0.7,0.4-1.1l0.2-1.2c0.1-0.4,0.2-0.8,0.2-1.2l0.1-1.2
				c0-0.4,0-0.8-0.1-1.2l-0.1-1.2c-0.1-0.4-0.2-0.7-0.3-1.1c-0.1-0.4-0.2-0.8-0.4-1.1l-0.5-1c-0.1-0.4-0.3-0.7-0.6-1l-0.6-1
				c-0.2-0.3-0.5-0.6-0.8-0.9l-0.8-0.8l-1.7-1.6l0.3,0.2c-2.3-0.5-4.6-1.2-6.8-1.7l-6.8-1.8l-3.4-0.9c-1.1-0.3-2.3-0.6-3.4-1
				l-6.7-2.2l-6.7-2.2c-2.2-0.8-4.4-1.7-6.6-2.5l-6.6-2.5c-1.1-0.4-2.2-0.9-3.2-1.4l-3.2-1.4l-6.4-2.9c-2.1-1-4.2-2.1-6.3-3.1
				L228,475c-2.1-1.1-4.1-2.3-6.1-3.5c-2-1.2-4.1-2.3-6.1-3.6l-6-3.8c-1-0.6-2-1.2-3-1.9l-2.9-2l-5.8-4l-1.4-1l1.5-0.8l1.7-0.9
				l1.7-0.9l1.6-1l1.6-1.1l1.5-1.1l1.5-1.2l1.4-1.3c0.4-0.5,0.9-0.9,1.3-1.4c0.4-0.5,0.9-0.9,1.2-1.4c0.4-0.5,0.8-1,1.1-1.5
				c0.4-0.5,0.7-1.1,1-1.6c0.3-0.5,0.6-1.1,0.8-1.7c0.3-0.6,0.4-1.2,0.6-1.8c0.2-0.6,0.3-1.2,0.4-1.9c0.1-0.6,0.1-1.3,0.2-1.9
				l0.1-1.9l0,0l-0.9-2l1.1,1.9l0,0l0,0c0.1,1.3,0.1,2.6,0.1,3.9c-0.1,0.6-0.1,1.3-0.3,2c-0.2,0.6-0.3,1.3-0.5,1.9
				c-0.2,0.6-0.4,1.3-0.7,1.9c-0.3,0.6-0.6,1.2-0.9,1.8c-0.3,0.6-0.7,1.1-1.1,1.7c-0.4,0.6-0.8,1.1-1.2,1.6c-0.8,1-1.7,2-2.7,2.9
				l-1.5,1.3l-1.5,1.3l-1.6,1.2l-1.6,1.1c-1.1,0.7-2.2,1.4-3.4,2.1l0.1-1.8l5.9,3.8l2.9,1.9c1,0.6,2,1.2,3,1.8l6,3.6
				c2,1.2,4.1,2.3,6.1,3.4l6.1,3.4l6.2,3.1c2.1,1,4.1,2.1,6.3,3.1l6.4,2.9l3.2,1.4c1.1,0.5,2.1,1,3.2,1.4l6.5,2.6
				c2.2,0.9,4.3,1.8,6.5,2.6l6.6,2.3l6.6,2.4c1.1,0.4,2.2,0.8,3.3,1.1l3.3,1l6.7,2.1c2.2,0.7,4.4,1.4,6.7,2.1l0.2,0.1l0.1,0.1
				l1.6,1.7l0.8,1c0.2,0.3,0.5,0.6,0.8,1l0.6,1.1c0.2,0.4,0.4,0.7,0.5,1.1l0.4,1.2c0.2,0.4,0.2,0.8,0.3,1.2c0.1,0.4,0.2,0.8,0.2,1.2
				l0.1,1.2c0,0.4,0.1,0.8,0,1.2l-0.2,1.2c0,0.4-0.2,0.8-0.3,1.2l-0.3,1.2c-0.1,0.4-0.3,0.7-0.5,1.1L304.5,518.3z"/>
			<path class="st15" d="M441.4,598c0,0-0.5-0.3-1.6-0.9c-1-0.6-2.5-1.5-4.4-2.6c-0.9-0.6-2-1.2-3.1-1.9c-1.1-0.7-2.4-1.4-3.7-2.1
				c-1.3-0.8-2.7-1.6-4.2-2.4c-0.7-0.4-1.5-0.9-2.3-1.3c-0.8-0.4-1.6-0.9-2.4-1.3c-3.3-1.8-6.9-3.8-10.7-5.8c-1.9-1-3.9-2-5.9-3.1
				c-2-1-4.1-2.1-6.2-3.1c-4.2-2.2-8.6-4.2-13-6.4c-2.2-1.1-4.5-2.1-6.7-3.2c-2.3-1.1-4.5-2.2-6.8-3.2c-4.6-2.1-9.1-4.2-13.6-6.2
				c-4.5-2-9-4-13.3-5.8c-4.3-1.9-8.5-3.6-12.5-5.3c-4-1.7-7.7-3.3-11.2-4.7c-7-2.9-12.8-5.4-16.8-7.1c-2-0.8-3.6-1.5-4.7-2
				c-1.1-0.5-1.7-0.7-1.7-0.7s0.6,0.2,1.7,0.6c1.1,0.4,2.8,0.9,4.9,1.6c4.2,1.4,10.1,3.4,17.2,6c3.5,1.3,7.4,2.7,11.4,4.3
				c4.1,1.5,8.3,3.2,12.7,5c4.4,1.8,8.9,3.6,13.4,5.6c4.6,2,9.2,4,13.7,6.1c2.3,1,4.6,2.2,6.8,3.2c2.3,1.1,4.5,2.1,6.7,3.3
				c4.4,2.2,8.8,4.4,12.9,6.7c2.1,1.1,4.1,2.2,6.1,3.3c2,1.1,3.9,2.2,5.8,3.3c3.8,2.1,7.2,4.3,10.5,6.3c3.3,1.9,6.1,3.9,8.7,5.6
				c1.3,0.9,2.5,1.6,3.6,2.4c1.1,0.8,2.1,1.5,3,2.1c1.8,1.3,3.2,2.3,4.2,3C440.9,597.7,441.4,598,441.4,598z"/>
			<path class="st15" d="M580.7,609.7c0,0-2.1,0.2-5.8,0.4c-0.9,0.1-1.9,0.1-3,0.2c-0.6,0-1.1,0.1-1.7,0.1c-0.6,0-1.2,0-1.9,0
				c-2.6,0-5.5,0.2-8.6,0.1c-1.6,0-3.2-0.1-5-0.1c-1.7,0-3.5-0.2-5.3-0.3c-3.6-0.2-7.4-0.6-11.4-0.9c-3.9-0.5-8-0.9-12.1-1.6
				c-4.1-0.6-8.3-1.4-12.4-2.1c-2.1-0.4-4.1-0.9-6.2-1.3c-2.1-0.5-4.1-0.9-6.1-1.4c-2-0.4-4-1-6-1.5c-2-0.5-3.9-1-5.8-1.5
				c-3.8-1-7.5-2.1-11-3.1c-3.5-1-6.7-2.1-9.7-3.1c-3-1-5.7-1.9-8.2-2.8c-2.4-0.9-4.5-1.6-6.3-2.3c-3.5-1.3-5.4-2-5.4-2
				s2,0.5,5.6,1.5c3.6,1,8.6,2.3,14.7,3.9c3.1,0.8,6.4,1.7,9.9,2.6c3.5,0.9,7.2,1.8,11,2.7c3.8,1,7.8,1.8,11.8,2.7
				c2,0.4,4.1,0.9,6.1,1.3c2,0.4,4.1,0.8,6.2,1.2c4.1,0.8,8.2,1.6,12.3,2.2c4.1,0.7,8.1,1.3,12,1.8c3.9,0.4,7.7,1,11.3,1.3
				c3.6,0.4,7,0.7,10.1,0.9c0.8,0.1,1.6,0.1,2.3,0.2c0.8,0,1.5,0.1,2.2,0.1c1.4,0.1,2.8,0.2,4.1,0.2c0.6,0,1.3,0.1,1.8,0.1
				c0.6,0,1.2,0,1.7,0c1.1,0,2.1,0,3.1,0.1C578.6,609.7,580.7,609.7,580.7,609.7z"/>
			<path class="st15" d="M647.1,582.7c0,0-1,0.5-2.8,1.3c-0.9,0.4-2,0.9-3.2,1.4c-1.3,0.5-2.7,1-4.3,1.5c-1.6,0.5-3.4,1-5.2,1.5
				c-1.9,0.5-3.9,0.8-6,1.3c-1,0.2-2.1,0.3-3.2,0.5c-1.1,0.2-2.2,0.3-3.3,0.4c-1.1,0.1-2.2,0.2-3.3,0.3c-1.1,0.1-2.2,0.1-3.4,0.2
				c-1.1,0.1-2.2,0-3.4,0l-1.7,0c-0.6,0-1.1,0-1.7,0c-2.2,0-4.3-0.2-6.4-0.3c-4.2-0.2-8.1-0.4-11.4-0.7c-1.7-0.1-3.2-0.2-4.5-0.3
				c-1.4-0.1-2.5-0.2-3.5-0.3c-1.9-0.2-3.1-0.3-3.1-0.3s1.1-0.1,3.1-0.3c1-0.1,2.2-0.2,3.5-0.3c0.7,0,1.4-0.1,2.2-0.2
				c0.8,0,1.6-0.1,2.4-0.1c1.7-0.1,3.5-0.1,5.4-0.1c1.9,0,3.9-0.1,6-0.1c2.1,0,4.2,0,6.4,0c0.5,0,1.1,0,1.6,0l1.6,0
				c1.1,0,2.2,0,3.3-0.1c1.1,0,2.2-0.1,3.3-0.1c1.1-0.1,2.2-0.2,3.3-0.2c2.2-0.1,4.3-0.4,6.3-0.6c2-0.3,4-0.5,5.9-0.8
				c0.9-0.2,1.8-0.3,2.7-0.5c0.9-0.2,1.7-0.3,2.5-0.5c1.6-0.4,3.1-0.7,4.4-0.9c1.3-0.3,2.5-0.6,3.4-0.9
				C646,582.9,647.1,582.7,647.1,582.7z"/>
			<path class="st15" d="M782.5,579.5c0,0-0.6,0-1.9,0c-0.6,0-1.4,0-2.2,0c-0.9,0-1.9-0.1-3-0.2c-1.1-0.1-2.4-0.2-3.7-0.4
				c-0.7-0.1-1.4-0.2-2.1-0.3c-0.7-0.1-1.5-0.3-2.3-0.5c-3.1-0.6-6.6-1.7-10.2-3.1c-0.9-0.4-1.8-0.8-2.7-1.2
				c-0.9-0.4-1.9-0.8-2.8-1.4c-0.9-0.5-1.9-1-2.8-1.6c-0.5-0.3-1-0.5-1.4-0.8c-0.5-0.3-0.9-0.6-1.4-0.9c-1.9-1.2-3.8-2.5-5.7-3.9
				c-1.9-1.3-3.8-2.9-5.7-4.4c-1-0.7-1.9-1.6-2.8-2.4l-1.4-1.2c-0.5-0.4-0.9-0.8-1.4-1.3c-0.9-0.9-1.8-1.8-2.7-2.7l-0.7-0.7
				l-0.6-0.7l-1.3-1.4c-1.7-1.9-3.4-3.8-5.2-5.6l-2.6-2.8l-2.7-2.7c-3.6-3.7-7.3-7.2-11.1-10.6c-3.8-3.3-7.6-6.5-11.5-9.2
				c-3.9-2.7-7.9-5.1-11.9-6.8c-4-1.8-7.9-3-11.7-3.5c-0.9-0.2-1.9-0.2-2.8-0.3c-0.5,0-0.9-0.1-1.3-0.1c-0.4,0-0.9,0-1.3,0
				c-1.8,0-3.4,0.1-4.9,0.3c-3.1,0.4-5.7,1.2-7.9,1.8c-2.1,0.7-3.8,1.3-4.9,1.8c-1.1,0.5-1.7,0.7-1.7,0.7s0.6-0.3,1.7-0.8
				c1.1-0.5,2.7-1.3,4.8-2.2c2.1-0.8,4.7-1.8,7.9-2.4c1.6-0.3,3.3-0.6,5.1-0.6c0.5,0,0.9-0.1,1.4-0.1c0.5,0,0.9,0,1.4,0
				c0.9,0,1.9,0,2.9,0.2c1,0.1,2,0.2,3,0.4c1,0.2,2,0.4,3.1,0.6c1,0.3,2.1,0.6,3.1,0.9c1,0.3,2.1,0.8,3.1,1.2
				c4.2,1.7,8.4,4,12.5,6.7c4.1,2.8,8.1,5.8,12,9.2c3.8,3.4,7.7,7,11.3,10.7l2.7,2.8l2.7,2.9c1.8,1.9,3.5,3.8,5.2,5.7
				c1.7,1.9,3.4,3.7,5.1,5.5c0.4,0.5,0.8,0.9,1.3,1.3l1.3,1.2c0.9,0.8,1.7,1.7,2.7,2.4c1.8,1.5,3.6,3,5.5,4.5c1.8,1.5,3.6,2.7,5.4,4
				c0.4,0.3,0.9,0.6,1.3,0.9c0.5,0.3,0.9,0.6,1.4,0.8c0.9,0.6,1.8,1.1,2.7,1.6c0.9,0.6,1.8,1,2.7,1.4c0.9,0.4,1.7,0.9,2.6,1.3
				c3.5,1.5,6.8,2.8,9.8,3.6c0.8,0.2,1.5,0.4,2.2,0.6c0.7,0.2,1.4,0.3,2.1,0.4c1.3,0.3,2.6,0.5,3.7,0.7c2.2,0.3,4,0.6,5.2,0.6
				C781.9,579.4,782.5,579.5,782.5,579.5z"/>
			<path class="st15" d="M897,517.9c0,0-3.6,1.8-9.1,4c-1.4,0.6-2.9,1.2-4.5,1.8c-0.8,0.3-1.6,0.6-2.5,0.9c-0.8,0.3-1.7,0.6-2.6,0.9
				c-1.8,0.6-3.6,1.2-5.5,1.7c-1.9,0.6-3.8,1.1-5.7,1.7c-1.9,0.6-3.9,1-5.8,1.5c-1.9,0.5-3.8,0.9-5.6,1.3c-3.6,0.8-7.1,1.5-10,2
				c-5.9,1-9.9,1.4-9.9,1.4s3.8-1.4,9.5-3.1c1.4-0.4,3-0.9,4.6-1.4c1.6-0.5,3.4-1,5.2-1.5c1.8-0.5,3.6-1.1,5.5-1.5
				c1.9-0.5,3.8-1,5.7-1.5c1.9-0.5,3.8-1.1,5.7-1.6c1.9-0.5,3.7-1,5.5-1.5c0.9-0.2,1.8-0.5,2.7-0.7c0.9-0.2,1.7-0.5,2.5-0.7
				c1.6-0.5,3.2-0.9,4.6-1.3C893.1,518.7,897,517.9,897,517.9z"/>
			<path class="st16" d="M847,406.2c0,0,0,0.1,0.1,0.3c0.1,0.2,0.2,0.5,0.4,0.9c0.4,0.8,1.2,1.8,2.4,2.9c1.2,1.1,2.9,2.2,4.9,3.2
				c2,1,4.5,1.9,7.1,2.8c5.3,1.8,11.6,3.9,18.3,6.2c3.3,1.2,6.8,2.3,10.3,3.6c3.5,1.3,7,2.6,10.5,4.1c3.5,1.5,7,3,10.3,4.7
				c3.3,1.7,6.5,3.5,9.5,5.6c3,2,5.6,4.3,7.9,6.6c2.3,2.4,4.1,4.9,5.5,7.5c1.4,2.5,2.2,5,2.8,7.3c0.6,2.2,0.8,4.3,1,5.9
				c0.1,1.7,0.1,3,0.1,3.8c0,0.9,0,1.4,0,1.4s0-0.5-0.1-1.4c0-0.9-0.2-2.2-0.4-3.8c-0.3-1.6-0.6-3.6-1.3-5.7
				c-0.7-2.2-1.7-4.5-3.1-6.9c-1.4-2.4-3.3-4.8-5.5-7c-2.3-2.2-4.9-4.3-7.8-6.2c-2.9-1.9-6.1-3.6-9.4-5.3c-3.3-1.6-6.7-3.1-10.2-4.6
				c-6.9-2.9-14-5.4-20.6-7.9c-3.3-1.2-6.5-2.4-9.5-3.6c-3-1.1-5.9-2.2-8.5-3.3c-2.6-1.1-5-2.1-7.1-3.2c-2-1.1-3.7-2.3-4.8-3.5
				c-1.2-1.2-1.8-2.4-2.2-3.2c-0.2-0.4-0.3-0.7-0.4-0.9C847.1,406.3,847,406.2,847,406.2z"/>
			<path class="st16" d="M526.6,283.2c0,0,5.4,0.2,14.8,0.6c2.3,0.1,4.9,0.4,7.8,0.6c2.8,0.3,5.9,0.4,9.1,0.8
				c3.2,0.4,6.7,0.8,10.4,1.3c0.9,0.1,1.8,0.2,2.8,0.3c0.9,0.2,1.9,0.3,2.8,0.5c1.9,0.3,3.8,0.7,5.8,1c2,0.4,4,0.7,6.1,1.1
				c2.1,0.4,4.1,0.9,6.3,1.3c2.1,0.5,4.3,0.9,6.5,1.4c2.2,0.6,4.4,1.1,6.6,1.7c2.2,0.6,4.5,1.1,6.8,1.8c2.3,0.7,4.6,1.4,6.9,2
				c4.7,1.3,9.3,3,14.1,4.6c2.4,0.8,4.8,1.7,7.2,2.6c2.4,0.9,4.8,1.8,7.2,2.8c2.4,1,4.8,2,7.2,3c1.2,0.5,2.4,1,3.6,1.5
				c1.2,0.5,2.4,1.1,3.6,1.6c2.4,1.1,4.8,2.2,7.3,3.2c2.4,1.1,4.8,2.3,7.3,3.4c2.4,1.1,4.8,2.3,7.2,3.5l7.2,3.6
				c9.6,4.9,19,9.9,28.4,14.9c2.3,1.2,4.6,2.5,6.9,3.7c2.3,1.2,4.6,2.4,6.9,3.6c4.6,2.4,9.2,4.7,13.6,7c4.5,2.2,9,4.3,13.4,6.4
				c2.2,1,4.3,2.1,6.5,3.1c1.1,0.5,2.1,1,3.2,1.5c1.1,0.5,2.1,0.9,3.2,1.4c4.2,1.9,8.3,3.7,12.3,5.4c2,0.9,3.9,1.7,5.9,2.6
				c1.9,0.8,3.9,1.5,5.7,2.3c7.5,2.9,14.3,5.8,20.5,7.8c1.5,0.5,3,1.1,4.5,1.6c1.5,0.5,2.9,0.9,4.2,1.3c2.7,0.8,5.2,1.7,7.4,2.3
				c2.3,0.7,4.3,1.2,6,1.7c1.8,0.5,3.3,0.9,4.5,1.2c2.4,0.6,3.7,1,3.7,1s-1.3-0.3-3.8-0.9c-1.2-0.3-2.7-0.6-4.5-1.1
				c-1.8-0.5-3.8-1-6.1-1.6c-2.3-0.6-4.8-1.4-7.5-2.1c-1.4-0.4-2.8-0.8-4.2-1.3c-1.5-0.5-3-1-4.5-1.5c-6.3-1.9-13.1-4.6-20.7-7.5
				c-1.9-0.7-3.8-1.4-5.8-2.2c-1.9-0.8-3.9-1.7-5.9-2.5c-4-1.7-8.1-3.5-12.4-5.3c-1.1-0.5-2.1-0.9-3.2-1.4c-1.1-0.5-2.1-1-3.2-1.5
				c-2.2-1-4.3-2-6.5-3c-4.4-2-8.9-4.1-13.4-6.3c-4.5-2.3-9-4.6-13.7-6.9c-2.3-1.2-4.6-2.4-7-3.5c-2.3-1.2-4.7-2.5-7-3.7
				c-9.3-5-18.8-9.9-28.4-14.8l-7.2-3.6c-2.4-1.2-4.8-2.4-7.2-3.5c-2.4-1.1-4.8-2.3-7.2-3.4c-2.4-1.1-4.8-2.2-7.2-3.3
				c-1.2-0.5-2.4-1.1-3.6-1.6c-1.2-0.5-2.4-1-3.6-1.5c-2.4-1-4.8-2-7.2-3c-2.4-1-4.8-1.8-7.2-2.8c-2.4-0.9-4.7-1.9-7.1-2.6
				c-4.8-1.6-9.4-3.3-14-4.7c-2.3-0.7-4.6-1.4-6.8-2.1c-2.3-0.7-4.5-1.2-6.7-1.9c-2.2-0.6-4.4-1.2-6.6-1.8c-2.2-0.5-4.3-1-6.4-1.5
				c-2.1-0.5-4.2-1-6.2-1.4c-2-0.4-4.1-0.8-6-1.1c-2-0.4-3.9-0.7-5.8-1.1c-0.9-0.2-1.9-0.3-2.8-0.5c-0.9-0.1-1.8-0.3-2.8-0.4
				c-3.6-0.5-7.1-1-10.3-1.5c-3.2-0.4-6.3-0.7-9.1-1c-2.8-0.3-5.4-0.6-7.7-0.8C532,283.5,526.6,283.2,526.6,283.2z"/>
			<path class="st16" d="M372.7,299.5c0,0,2.3-0.3,6.5-0.9c4.1-0.6,10-1.5,17-2.3c3.5-0.4,7.4-0.9,11.4-1.4
				c4.1-0.4,8.3-0.9,12.8-1.3c4.4-0.4,9-0.7,13.7-1.1c2.3-0.2,4.7-0.4,7.1-0.5c2.4-0.1,4.7-0.2,7.1-0.3c2.4-0.1,4.7-0.1,7.1-0.1
				c2.4,0,4.7,0,7.1-0.1c4.7,0.1,9.3,0.2,13.7,0.3c4.5,0.2,8.8,0.5,12.8,0.7c4.1,0.3,7.9,0.7,11.5,1c3.6,0.3,6.8,0.8,9.7,1.1
				c2.9,0.4,5.4,0.7,7.4,0.9c4.1,0.6,6.5,0.9,6.5,0.9s-2.4-0.2-6.5-0.5c-2.1-0.2-4.6-0.4-7.5-0.6c-1.4-0.1-3-0.2-4.6-0.3
				c-0.8-0.1-1.6-0.1-2.5-0.2c-0.8,0-1.7-0.1-2.6-0.1c-3.5-0.2-7.4-0.4-11.4-0.6c-4.1-0.1-8.3-0.2-12.8-0.4c-4.4,0-9-0.1-13.7-0.1
				c-2.3,0-4.7,0.1-7,0.1c-2.4,0-4.7,0.1-7.1,0.2c-2.4,0.1-4.7,0.2-7.1,0.2c-2.3,0.1-4.7,0.3-7,0.4c-4.6,0.3-9.2,0.5-13.7,0.9
				c-4.4,0.4-8.7,0.7-12.8,1c-4.1,0.3-7.9,0.7-11.4,1c-7.1,0.6-13,1.2-17.1,1.6C375.1,299.3,372.7,299.5,372.7,299.5z"/>
			<path class="st16" d="M96.7,327.8c0,0,4.2,0.7,11.5,1.9c0.9,0.2,1.9,0.3,2.9,0.5c1,0.2,2.1,0.4,3.2,0.5c2.2,0.3,4.6,0.5,7.2,0.8
				c2.6,0.3,5.3,0.6,8.1,0.9c2.9,0.2,5.9,0.4,9.1,0.6c6.3,0.6,13.2,0.5,20.4,0.7c0.9,0,1.8,0.1,2.7,0c0.9,0,1.8-0.1,2.8-0.1
				c1.9-0.1,3.8-0.1,5.7-0.2c1.9-0.1,3.8-0.1,5.8-0.2c1,0,2-0.1,2.9-0.1l1.5,0l1.5-0.1c3.9-0.3,8-0.6,12-0.9c2-0.2,4.1-0.3,6.1-0.5
				c2.1-0.1,4.1-0.5,6.2-0.7c4.1-0.5,8.3-1,12.5-1.4c2.1-0.2,4.2-0.5,6.3-0.7l6.3-0.9c8.4-1.2,16.7-2.4,25-3.5
				c8.3-1.1,16.4-2.2,24.3-3.2c7.9-0.8,15.6-1.4,22.8-2.1c3.6-0.4,7.2-0.5,10.6-0.7c3.4-0.2,6.7-0.3,9.9-0.5
				c1.6-0.1,3.1-0.1,4.7-0.2c1.5,0,3,0,4.5,0c2.9,0,5.6,0,8.2,0c1.3,0,2.5,0,3.7,0c1.2,0,2.4,0.1,3.5,0.1c2.2,0.1,4.3,0.2,6.1,0.2
				c3.7,0.1,6.6,0.2,8.6,0.5c2,0.2,3,0.3,3,0.3s-1.1-0.1-3-0.2c-2-0.2-4.9-0.1-8.6-0.2c-1.9,0-3.9,0-6.1-0.1c-1.1,0-2.3,0-3.5,0
				c-1.2,0-2.4,0.1-3.7,0.1c-2.6,0.1-5.3,0.2-8.2,0.3c-1.4,0-2.9,0.1-4.4,0.1c-1.5,0.1-3.1,0.2-4.6,0.3c-3.2,0.2-6.5,0.4-9.9,0.6
				c-3.4,0.2-6.9,0.4-10.5,0.8c-7.2,0.7-14.8,1.5-22.7,2.3c-7.9,1.1-16,2.2-24.2,3.3c-8.2,1.1-16.6,2.4-25,3.6l-6.3,0.9
				c-2.1,0.2-4.2,0.5-6.3,0.7c-4.2,0.5-8.4,0.9-12.5,1.4c-2.1,0.2-4.1,0.5-6.2,0.6c-2.1,0.1-4.1,0.3-6.2,0.4
				c-4.1,0.3-8.1,0.6-12.1,0.9l-1.5,0.1l-1.5,0c-1,0-2,0-2.9,0.1c-1.9,0-3.9,0.1-5.8,0.1c-1.9,0-3.8,0.1-5.7,0.1c-0.9,0-1.9,0-2.8,0
				c-1,0-1.8,0-2.8-0.1c-7.3-0.3-14.2-0.3-20.5-1c-3.2-0.3-6.2-0.5-9.1-0.8c-2.9-0.3-5.6-0.8-8.2-1.1c-2.6-0.4-5-0.7-7.2-1
				c-1.1-0.1-2.2-0.4-3.2-0.5c-1-0.2-2-0.4-2.9-0.6C100.9,328.6,96.7,327.8,96.7,327.8z"/>
			<path class="st2" d="M337.4,536.5c-0.5-0.3-0.9-0.5-1.4-0.8C336.5,536,336.9,536.3,337.4,536.5z"/>
			<path class="st2" d="M414.4,567.2C414.4,567.2,414.4,567.2,414.4,567.2C414.4,567.2,414.4,567.2,414.4,567.2z"/>
			<g>
				<path class="st14" d="M581.8,492.4c0,0-2.4,0.5-6.6,1.5c-2.1,0.4-4.6,1.1-7.5,1.9c-1.4,0.4-3,0.7-4.6,1.3c-1.6,0.5-3.3,1-5,1.5
					c-0.9,0.3-1.8,0.5-2.7,0.8c-0.9,0.3-1.8,0.6-2.8,1c-1.9,0.7-3.8,1.3-5.8,2c-2,0.8-4,1.6-6,2.4c-1,0.4-2.1,0.8-3.1,1.2
					c-1,0.4-2.1,0.9-3.1,1.4c-2.1,0.9-4.3,1.8-6.4,2.8c-2.1,1-4.3,2.1-6.5,3.1c-2.2,1-4.3,2.2-6.5,3.4c-1.1,0.6-2.2,1.1-3.2,1.7
					l-3.2,1.8c-2.1,1.2-4.3,2.4-6.4,3.7c-2.1,1.3-4.1,2.6-6.2,3.8c-2.1,1.3-4,2.7-6,3.9c-2,1.3-3.9,2.6-5.8,4
					c-1.9,1.3-3.7,2.7-5.5,4c-1.8,1.3-3.5,2.6-5.2,3.9c-3.4,2.5-6.4,5.1-9.3,7.4c-1.4,1.2-2.8,2.3-4,3.4c-1.3,1.1-2.5,2.1-3.6,3.1
					c-1.1,1-2.2,1.9-3.2,2.8c-1,0.9-1.8,1.7-2.6,2.4c-3.2,2.9-5,4.6-5,4.6s1.7-1.8,4.7-4.8c0.8-0.8,1.6-1.6,2.5-2.5
					c0.9-0.9,2-1.9,3-2.9c2.2-2,4.6-4.5,7.4-6.8c2.8-2.4,5.8-5.1,9.1-7.7c1.7-1.3,3.3-2.7,5.1-4.1c1.8-1.3,3.6-2.7,5.5-4.1
					c1.8-1.4,3.8-2.7,5.8-4.1c2-1.3,3.9-2.8,6-4c2.1-1.3,4.1-2.6,6.2-3.9c2.1-1.3,4.2-2.5,6.4-3.7l3.2-1.8c1.1-0.6,2.2-1.1,3.3-1.7
					c2.2-1.1,4.3-2.3,6.5-3.3c2.2-1,4.4-2.1,6.5-3.1c2.2-1,4.3-1.9,6.5-2.8c1.1-0.5,2.1-0.9,3.2-1.3c1.1-0.4,2.1-0.8,3.2-1.2
					c2.1-0.8,4.1-1.5,6.1-2.2c2-0.6,4-1.3,5.9-1.9c0.9-0.3,1.9-0.6,2.8-0.9c0.9-0.3,1.8-0.5,2.7-0.7c1.8-0.5,3.5-0.9,5.1-1.4
					c1.6-0.4,3.2-0.7,4.7-1.1c2.9-0.6,5.5-1.2,7.6-1.5C579.4,492.8,581.8,492.4,581.8,492.4z"/>
				<path class="st14" d="M498.4,336.9l-12.3-2.4l0,0l0,0l-13.8-4l-13.7-4.3l-13.6-4.7c-1.1-0.4-2.2-0.9-3.4-1.3l-3.3-1.3l-6.7-2.6
					l-3.7-1.5l4-0.2l36.5-1.8c3-0.1,6.1-0.1,9.1-0.2l9.1-0.1l9.1-0.1l2.3,0l2.3,0l4.6,0.1l4.6,0.1c1.5,0,3.1,0.2,4.6,0.2
					c3.1,0.2,6.1,0.3,9.2,0.6l4.6,0.4l2.3,0.2l2.3,0.3c3,0.4,6.1,0.8,9.1,1.3l4.5,0.8l4.5,0.9c1.5,0.3,3,0.6,4.5,1
					c1.5,0.3,3,0.7,4.5,1l8.9,2.2c3,0.7,5.9,1.4,8.9,2l-0.3,0.2l0.1-3.3l0-1.7c0-0.3,0-0.5,0-0.8c0-0.3,0-0.6,0-0.8
					c-0.1-0.5-0.1-1.1-0.2-1.6c0-0.3-0.1-0.5-0.2-0.8c-0.1-0.3-0.2-0.5-0.3-0.8c-0.2-0.5-0.4-1-0.7-1.5c-0.2-0.5-0.5-1-0.8-1.5
					c0.3,0.5,0.6,0.9,0.9,1.4c0.3,0.5,0.5,1,0.7,1.5c0.1,0.3,0.2,0.5,0.3,0.8c0.1,0.3,0.2,0.5,0.2,0.8c0.2,0.5,0.2,1.1,0.3,1.7
					c0,0.3,0,0.6,0.1,0.8c0,0.3,0,0.6,0,0.8l0,1.7l0.1,3.3l0,0.3l-0.3-0.1c-3-0.5-6-1.1-9-1.7c-3-0.6-6-1.2-8.9-1.9
					c-1.5-0.3-3-0.6-4.5-0.9c-1.5-0.3-3-0.6-4.5-0.9l-4.5-0.8l-4.5-0.7c-3-0.5-6-0.8-9-1.1l-2.3-0.3l-2.3-0.2l-4.5-0.4
					c-3-0.3-6.1-0.4-9.1-0.5c-1.5-0.1-3-0.2-4.5-0.2l-4.6-0.1l-4.6-0.1l-2.3,0l-2.3,0l-9.1,0.2l-9.1,0.2c-3,0.1-6.1,0-9.1,0.2
					l-36.5,1.5l0.3-1.6l6.6,2.7l3.3,1.4c1.1,0.4,2.2,0.9,3.3,1.3l13.4,4.9l13.6,4.6l13.6,4.4l0,0L498.4,336.9z"/>
				<path class="st14" d="M376.6,350.6l-3.5-0.7l-1.7-0.3c-0.6-0.1-1.2-0.2-1.7-0.3l-3.5-0.6c-1.2-0.2-2.3-0.4-3.5-0.5l-3.5-0.4
					c-1.2-0.1-2.3-0.3-3.5-0.4l-7.1-0.6l-7-0.6l7-0.6l18.5-1.5c3.1-0.3,6.2-0.4,9.3-0.6l9.3-0.5c3.1-0.2,6.2-0.3,9.3-0.4l9.3-0.3
					c3.1-0.1,6.2-0.2,9.3-0.2l9.3,0l4.6,0l4.7,0.1l9.3,0.2c3.1,0.1,6.2,0.1,9.3,0.2c3.1,0.1,6.2,0.1,9.3,0.3
					c6.2,0.4,12.4,0.6,18.6,1l9.3,0.8c1.5,0.1,3.1,0.2,4.6,0.4l4.6,0.5c-3.1-0.2-6.2-0.3-9.3-0.5l-9.3-0.4l-18.6-0.5
					c-3.1-0.1-6.2-0.1-9.3-0.1c-3.1,0-6.2,0-9.3-0.1l-9.3-0.1l-4.6,0l-4.6,0.1l-9.3,0.1c-3.1,0-6.2,0.1-9.3,0.2l-9.3,0.2
					c-3.1,0-6.2,0.2-9.3,0.3l-9.3,0.4c-3.1,0.1-6.2,0.2-9.3,0.4l-18.5,1v-1.1l7.1,0.8c1.2,0.1,2.4,0.4,3.5,0.5l3.5,0.5
					c1.2,0.2,2.3,0.4,3.5,0.7l3.5,0.7c1.2,0.2,2.3,0.6,3.5,0.8L376.6,350.6z"/>
				<path class="st14" d="M535.8,383.5c-3.8-1.5-7.5-3-11.3-4.4c-1.9-0.7-3.8-1.4-5.7-2.1c-1.9-0.7-3.8-1.3-5.7-2
					c-1.9-0.7-3.8-1.2-5.7-1.8c-1.9-0.6-3.8-1.2-5.8-1.7l-2.9-0.8l-2.9-0.7c-1.9-0.5-3.9-1-5.9-1.4c-2-0.4-3.9-0.9-5.9-1.3l-5.9-1.1
					c-2-0.4-4-0.6-5.9-1l-3-0.5l-3-0.4l-6-0.8l-6-0.6l-3-0.3l-3-0.2l-6-0.4c-4-0.2-8-0.4-12-0.5l-6-0.1l-3-0.1c-1,0-2,0-3,0
					l-12.1,0.2l-6,0.1c-2,0.1-4,0.2-6,0.4l-12,0.8c-2,0.1-4,0.3-6,0.5l-6,0.6c-4,0.4-8,0.7-12,1.4l-12,1.7l-0.2-1l7.6-1.7l3.8-0.9
					c1.3-0.3,2.5-0.6,3.8-0.8c5.1-1,10.2-2,15.4-3c-5.1,1.2-10.2,2.4-15.2,3.6c-1.3,0.3-2.5,0.6-3.8,1l-3.8,1l-7.6,1.9l-0.2-1
					l12-1.9c4-0.7,8-1.1,12-1.6l6-0.7c2-0.3,4-0.5,6-0.6l12.1-0.9c2-0.1,4-0.3,6-0.4l6-0.2l12.1-0.3c1,0,2-0.1,3-0.1l3,0l6.1,0.1
					c4,0.1,8.1,0.3,12.1,0.6l6,0.5l3,0.2l3,0.3l6,0.7l6,0.8l3,0.4l3,0.5c2,0.4,4,0.7,6,1.1l5.9,1.3c2,0.4,3.9,0.9,5.9,1.4
					c2,0.5,3.9,1,5.9,1.6l2.9,0.8l2.9,0.9c1.9,0.6,3.9,1.2,5.8,1.8c1.9,0.6,3.8,1.3,5.7,2c1.9,0.7,3.8,1.4,5.7,2.1
					c1.9,0.7,3.8,1.5,5.6,2.3C528.4,380.2,532.1,381.9,535.8,383.5z"/>
				<path class="st14" d="M485,416.2l-5.3-0.3l-2.7-0.2c-0.9,0-1.8-0.2-2.7-0.2l-5.3,0l-2.7,0c-0.9,0-1.8,0-2.6,0l-10.7,0.4
					l-10.6,0.9l-8.9,0.8l8.6-2.4c4.6-1.3,9.3-2.5,13.9-3.7l13.9-3.7l7-1.8c2.3-0.6,4.7-1.1,7-1.6l14-3.1l7-1.5
					c2.3-0.5,4.7-1.1,7-1.5l14.1-2.6c2.4-0.4,4.7-0.9,7.1-1.3c2.4-0.4,4.7-0.8,7.1-1.1c4.7-0.7,9.5-1.4,14.2-2
					c-4.7,1-9.4,1.9-14.1,2.8l-7,1.4c-2.3,0.4-4.7,1-7,1.5l-14,3c-4.7,1-9.3,2.1-14,3.2l-14,3.2c-2.3,0.6-4.7,1-7,1.7l-7,1.8
					l-13.9,3.5c-4.6,1.2-9.3,2.4-13.9,3.5l-0.3-1.6l10.7-0.6l10.7-0.1c0.9,0,1.8,0.1,2.7,0.1l2.7,0.1l5.3,0.3c0.9,0,1.8,0.2,2.7,0.3
					l2.6,0.3L485,416.2z"/>
				<path class="st14" d="M570.7,437.9c0,0-1.8-0.7-4.8-1.9c-1.5-0.7-3.5-1.2-5.6-1.9c-2.2-0.7-4.7-1.3-7.4-2
					c-0.7-0.2-1.4-0.3-2.1-0.5c-0.7-0.1-1.4-0.3-2.2-0.4c-1.5-0.3-3-0.6-4.6-0.9c-1.6-0.3-3.2-0.5-4.9-0.7c-1.7-0.2-3.4-0.5-5.1-0.7
					c-1.7-0.2-3.5-0.3-5.3-0.5c-0.9-0.1-1.8-0.2-2.7-0.2c-0.9-0.1-1.8-0.1-2.7-0.2c-1.8-0.1-3.7-0.3-5.6-0.3c-1.9,0-3.7-0.1-5.6-0.1
					c-0.9,0-1.9-0.1-2.8,0l-2.8,0c-1.9,0-3.7,0.1-5.6,0.1c-3.7,0.2-7.3,0.2-10.8,0.5c-1.8,0.1-3.5,0.2-5.2,0.3
					c-1.7,0.1-3.3,0.3-4.9,0.4c-1.6,0.1-3.2,0.3-4.7,0.4c-1.5,0.2-3,0.3-4.4,0.4c-2.8,0.3-5.4,0.6-7.6,0.9c-2.3,0.3-4.2,0.6-5.9,0.8
					c-3.3,0.5-5.1,0.7-5.1,0.7s1.8-0.4,5-1.1c3.2-0.6,7.8-1.6,13.4-2.5c2.8-0.4,5.8-0.9,9-1.2c1.6-0.2,3.3-0.4,4.9-0.6
					c1.7-0.1,3.4-0.3,5.2-0.5c1.8-0.2,3.6-0.3,5.4-0.4c1.8-0.1,3.7-0.2,5.5-0.3c1.8,0,3.7-0.1,5.6-0.1l2.8-0.1c1,0,1.9,0,2.8,0
					c1.9,0,3.8,0.1,5.7,0.1c1.9,0,3.7,0.2,5.6,0.3c3.7,0.2,7.3,0.6,10.9,1c1.8,0.2,3.5,0.5,5.2,0.8c1.7,0.3,3.3,0.5,4.9,0.9
					c1.6,0.4,3.1,0.7,4.6,1.1c0.7,0.2,1.5,0.3,2.2,0.5c0.7,0.2,1.4,0.4,2.1,0.6c2.7,0.8,5.2,1.5,7.4,2.4c2.1,0.8,4.1,1.5,5.5,2.2
					C569,437.1,570.7,437.9,570.7,437.9z"/>
				<path class="st14" d="M536.7,462.2c0,0,3.2-1,8.1-2.3c2.4-0.6,5.3-1.3,8.4-2.1c1.5-0.3,3.1-0.7,4.7-1.1c1.6-0.3,3.3-0.6,4.9-0.9
					c1.7-0.3,3.3-0.6,5-0.9c1.6-0.3,3.2-0.5,4.8-0.8c1.6-0.3,3.1-0.4,4.5-0.6c1.4-0.2,2.8-0.3,4-0.5c2.5-0.3,4.6-0.5,6.1-0.6
					c1.5-0.1,2.3-0.1,2.3-0.1s-0.8,0.2-2.3,0.5c-1.4,0.3-3.5,0.8-6,1.3c-2.5,0.5-5.4,1.1-8.4,1.7c-1.5,0.3-3.1,0.7-4.8,1
					c-1.6,0.3-3.3,0.6-4.9,0.9c-3.3,0.6-6.6,1.2-9.7,1.8c-3.1,0.6-6,1.1-8.5,1.5C540.1,461.9,536.7,462.2,536.7,462.2z"/>
				<path class="st14" d="M678.8,494.3l-4.7-2.2c-0.8-0.4-1.6-0.8-2.3-1.1l-2.4-1l-2.4-1c-0.4-0.2-0.8-0.3-1.2-0.5l-1.2-0.4
					l-4.9-1.7l-0.1,0l-6.2-2.7c-2.1-0.8-4.2-1.5-6.3-2.3c-1-0.4-2.1-0.7-3.2-1l-3.2-1c-2.1-0.7-4.3-1.2-6.5-1.7l-3.3-0.8
					c-1.1-0.3-2.2-0.4-3.3-0.7l-3.3-0.6l-1.7-0.3l-1.7-0.2l-6.7-0.9l-6.7-0.6c-1.1-0.1-2.2-0.2-3.4-0.2l-3.4-0.1
					c-1.1,0-2.3-0.1-3.4-0.1l-3.4,0.1l-6.8,0.1c-2.3,0.1-4.5,0.3-6.7,0.5l-3.4,0.2l-1.7,0.1l-1.7,0.2l-6.7,0.8
					c-1.1,0.1-2.3,0.2-3.4,0.4l-3.4,0.5l-6.7,1l6.6-1.5l3.3-0.7c1.1-0.2,2.2-0.4,3.4-0.6l6.7-1.1l1.7-0.3l1.7-0.2l3.4-0.4
					c2.3-0.2,4.5-0.5,6.8-0.7l6.8-0.3l3.4-0.1c1.2-0.1,2.3,0,3.4,0l3.4,0.1c1.1,0,2.3,0,3.4,0.2l6.8,0.6l6.8,0.9l1.7,0.2l1.7,0.3
					l3.4,0.7c1.1,0.2,2.2,0.4,3.3,0.7l3.3,0.8c2.2,0.6,4.4,1.1,6.6,1.8l3.3,1c1.1,0.3,2.2,0.7,3.2,1.1c2.1,0.8,4.3,1.6,6.4,2.5
					l6.2,2.9l-0.1,0l4.8,1.9l1.2,0.5c0.4,0.1,0.8,0.4,1.2,0.5l2.3,1.1l2.3,1.1c0.8,0.4,1.5,0.8,2.3,1.2L678.8,494.3z"/>
				<path class="st14" d="M727.2,455.8c0.3,0.4,0.5,0.8,0.8,1.1c0.3,0.3,0.6,0.7,0.9,1c0.3,0.3,0.6,0.6,1,0.9
					c0.3,0.3,0.7,0.6,1.1,0.8c0.4,0.3,0.8,0.5,1.2,0.7c0.4,0.2,0.8,0.4,1.2,0.6c0.8,0.4,1.7,0.7,2.5,1c1.7,0.6,3.4,1,5.2,1.4
					c1.8,0.4,3.5,0.7,5.3,1.1l2,0.4l-1.8,0.9l-5.2,2.5c-1.7,0.9-3.5,1.5-5.3,2.2l-2.7,1c-0.9,0.4-1.8,0.6-2.8,0.9
					c-1.9,0.5-3.7,1.2-5.6,1.6l-5.7,1.2c-1.9,0.4-3.8,0.6-5.7,0.9c-0.9,0.2-1.9,0.3-2.9,0.4l-2.9,0.3c-1.9,0.2-3.8,0.3-5.8,0.4
					c-1,0-1.9,0.1-2.9,0.1l-2.9,0c-1,0-1.9,0-2.9,0l-2.9-0.1c-1.9,0-3.8-0.2-5.8-0.3c-1.9-0.1-3.8-0.4-5.7-0.6
					c-1.9-0.3-3.8-0.5-5.7-0.9c-1.9-0.4-3.8-0.7-5.6-1.2l-2.8-0.7l-2.8-0.8c-1.9-0.5-3.6-1.2-5.5-1.8c1.9,0.5,3.7,1,5.6,1.4l2.8,0.6
					l2.8,0.5c1.9,0.4,3.8,0.5,5.7,0.8c1.9,0.2,3.8,0.4,5.7,0.6c1.9,0.1,3.8,0.3,5.7,0.4c1.9,0.1,3.8,0.2,5.7,0.2l2.9,0
					c0.9,0,1.9,0,2.8-0.1l2.8-0.1c0.9,0,1.9-0.1,2.8-0.2c1.9-0.1,3.8-0.2,5.7-0.5c1.9-0.2,3.8-0.3,5.7-0.7c1.9-0.3,3.8-0.6,5.6-0.9
					l5.6-1.2c1.8-0.4,3.7-1,5.5-1.5c0.9-0.3,1.8-0.5,2.7-0.8l2.7-1c1.8-0.7,3.6-1.2,5.3-2l5.2-2.3l0.2,1.2c-1.8-0.4-3.5-0.8-5.3-1.3
					c-1.8-0.5-3.5-1-5.2-1.7c-0.9-0.3-1.7-0.7-2.5-1.2c-0.4-0.2-0.8-0.4-1.2-0.7c-0.4-0.2-0.8-0.5-1.1-0.8c-0.4-0.3-0.7-0.6-1.1-0.9
					c-0.4-0.3-0.6-0.7-1-1c-0.3-0.3-0.6-0.7-0.8-1.1C727.6,456.6,727.4,456.2,727.2,455.8z"/>
				<path class="st14" d="M773.6,431.7c0,0-0.2,0.8-0.5,2.1c-0.2,0.7-0.3,1.5-0.6,2.4c-0.1,0.5-0.3,1-0.4,1.5
					c-0.2,0.5-0.5,1.1-0.7,1.6c-0.2,0.6-0.6,1.1-0.9,1.7c-0.2,0.3-0.3,0.6-0.5,0.9c-0.2,0.3-0.4,0.6-0.6,0.8
					c-0.2,0.3-0.4,0.6-0.6,0.9c-0.2,0.3-0.5,0.5-0.7,0.8c-0.2,0.3-0.5,0.6-0.8,0.8c-0.3,0.3-0.6,0.5-0.8,0.8
					c-0.3,0.3-0.6,0.5-0.9,0.8c-0.3,0.2-0.6,0.5-0.9,0.7c-0.6,0.5-1.3,0.9-2,1.3c-1.4,0.8-2.9,1.5-4.4,2.1c-0.8,0.3-1.5,0.5-2.3,0.7
					c-0.8,0.2-1.6,0.4-2.4,0.6c-0.8,0.2-1.6,0.3-2.3,0.4c-0.8,0.1-1.5,0.2-2.3,0.2c-0.8,0.1-1.5,0.1-2.2,0.1l-0.5,0l-0.1,0
					c-0.1,0-0.1,0-0.2,0l-0.3,0c-0.3,0-0.7-0.1-1-0.1c-0.7-0.1-1.3-0.1-2-0.2c-0.6-0.1-1.3-0.2-1.9-0.4c-0.6-0.1-1.2-0.2-1.7-0.3
					c-0.5-0.2-1-0.3-1.5-0.5c-0.9-0.3-1.7-0.6-2.4-0.9c-1.3-0.6-2-1-2-1s0.8,0.2,2.1,0.6c0.6,0.2,1.5,0.4,2.4,0.5
					c0.5,0.1,1,0.2,1.5,0.3c0.5,0,1.1,0.1,1.7,0.2c0.6,0,1.2,0.1,1.8,0.2c0.6,0,1.3,0,2,0c0.3,0,0.7,0,1,0l0.3,0c0,0,0.1,0,0.1,0
					l0.1,0l0.5,0c0.7,0,1.4-0.1,2.1-0.2c1.4-0.1,2.9-0.4,4.4-0.7c0.7-0.1,1.5-0.4,2.2-0.6c0.7-0.2,1.5-0.5,2.2-0.7
					c1.4-0.6,2.8-1.2,4.1-1.9c0.6-0.4,1.3-0.7,1.9-1.2c0.3-0.2,0.6-0.4,0.9-0.6c0.3-0.2,0.6-0.5,0.8-0.7c0.3-0.2,0.6-0.4,0.8-0.7
					c0.2-0.2,0.5-0.5,0.7-0.7c0.2-0.2,0.5-0.5,0.7-0.7c0.2-0.3,0.4-0.5,0.6-0.8c0.2-0.3,0.4-0.5,0.6-0.7c0.2-0.3,0.4-0.5,0.5-0.8
					c0.3-0.5,0.7-1,1-1.5c0.3-0.5,0.6-1,0.8-1.4c0.2-0.5,0.4-1,0.6-1.4c0.4-0.9,0.7-1.6,1-2.3C773.3,432.5,773.6,431.7,773.6,431.7z
					"/>
				<path class="st14" d="M647.1,408c0,0,1,0,2.7,0c0.9,0,1.9,0.1,3.1,0.2c1.2,0.1,2.6,0.3,4,0.6c1.5,0.2,3.1,0.6,4.7,0.9
					c1.7,0.4,3.4,0.8,5.2,1.2c1.8,0.5,3.7,1,5.5,1.5c0.9,0.3,1.9,0.6,2.8,0.9l0.7,0.2l0.7,0.3l1.4,0.5l1.4,0.5l1.4,0.6
					c0.9,0.4,1.9,0.8,2.7,1.2c0.9,0.4,1.8,0.8,2.6,1.3c0.8,0.5,1.7,0.9,2.5,1.4c0.8,0.5,1.6,1,2.3,1.5c0.7,0.5,1.5,1.1,2.1,1.6
					c1.4,1.1,2.5,2.2,3.6,3.3c1,1.1,1.9,2.2,2.6,3.2c0.4,0.5,0.7,1,0.9,1.5c0.2,0.5,0.4,0.9,0.6,1.3c0.7,1.6,1.1,2.5,1.1,2.5
					s-0.5-0.8-1.4-2.3c-0.2-0.4-0.5-0.8-0.7-1.2c-0.3-0.4-0.6-0.8-1-1.3c-0.8-0.9-1.7-1.8-2.8-2.8c-1.1-1-2.3-2-3.7-2.9
					c-0.7-0.5-1.4-1-2.1-1.4c-0.7-0.5-1.5-0.9-2.3-1.4c-1.6-0.9-3.3-1.7-5-2.5c-0.9-0.4-1.8-0.8-2.6-1.1l-1.3-0.5l-1.4-0.5l-1.4-0.5
					l-0.7-0.2l-0.7-0.2c-0.9-0.3-1.8-0.6-2.8-0.9c-0.9-0.3-1.8-0.6-2.7-0.9c-0.9-0.3-1.8-0.5-2.7-0.8c-1.8-0.5-3.5-1-5.1-1.5
					c-1.6-0.4-3.2-0.9-4.6-1.2c-1.4-0.3-2.7-0.7-3.9-0.9c-1.2-0.2-2.2-0.5-3-0.6C648.1,408.1,647.1,408,647.1,408z"/>
				<path class="st14" d="M634.5,377.6c0,0,0.6,0,1.7,0.1c0.5,0.1,1.2,0.1,1.9,0.2c0.7,0.1,1.6,0.2,2.5,0.4c0.9,0.2,1.9,0.3,2.9,0.5
					c1,0.2,2.1,0.5,3.2,0.8c1.1,0.3,2.3,0.6,3.4,1c1.1,0.4,2.3,0.8,3.5,1.2c1.1,0.5,2.3,0.9,3.4,1.5c1.1,0.5,2.2,1.1,3.2,1.6
					c1,0.6,2,1.2,2.8,1.8c0.4,0.3,0.9,0.6,1.3,0.9c0.4,0.3,0.8,0.6,1.1,0.9c0.7,0.6,1.3,1.2,1.9,1.7c0.3,0.3,0.5,0.5,0.7,0.8
					c0.2,0.3,0.4,0.5,0.5,0.7c0.2,0.2,0.3,0.5,0.4,0.6c0.1,0.2,0.2,0.3,0.2,0.5c0.1,0.3,0.1,0.4,0.1,0.4s-0.1-0.1-0.2-0.4
					c-0.1-0.1-0.2-0.3-0.3-0.4c-0.1-0.1-0.3-0.3-0.5-0.5c-0.2-0.2-0.4-0.4-0.6-0.6c-0.2-0.2-0.5-0.4-0.8-0.6c-0.3-0.2-0.6-0.4-1-0.7
					c-0.3-0.2-0.7-0.5-1.1-0.7c-0.8-0.5-1.6-1-2.5-1.5c-0.9-0.5-1.9-1-2.9-1.5c-1-0.5-2.1-1-3.2-1.4c-1.1-0.5-2.2-0.9-3.3-1.4
					c-1.1-0.5-2.2-0.9-3.4-1.3c-1.1-0.4-2.2-0.8-3.3-1.2c-1.1-0.4-2.1-0.7-3.1-1c-1-0.3-1.9-0.6-2.8-0.9c-0.9-0.3-1.7-0.5-2.4-0.7
					c-0.7-0.2-1.3-0.4-1.8-0.6C635.1,377.8,634.5,377.6,634.5,377.6z"/>
				<path class="st14" d="M835.4,404c0,0-0.4,0.5-1.3,1.3c-0.4,0.4-0.9,1-1.6,1.6c-0.7,0.5-1.5,1.2-2.3,1.9
					c-0.2,0.2-0.4,0.4-0.7,0.5c-0.2,0.2-0.5,0.3-0.8,0.5c-0.5,0.3-1.1,0.7-1.6,1c-1.1,0.8-2.4,1.4-3.8,2.1c-1.4,0.8-3,1.3-4.6,2
					c-0.8,0.4-1.7,0.6-2.6,0.8c-0.9,0.2-1.8,0.6-2.7,0.7c-1.9,0.3-3.9,0.8-6,0.9c-0.5,0-1,0.1-1.6,0.1c-0.3,0-0.5,0.1-0.8,0l-0.8,0
					c-1.1,0-2.1-0.1-3.2-0.1c-1.1,0-2.2-0.3-3.3-0.4c-1.1-0.2-2.3-0.2-3.4-0.5c-2.3-0.5-4.6-0.9-6.9-1.6c-1.2-0.3-2.3-0.7-3.5-1
					c-1.2-0.4-2.3-0.8-3.5-1.2c-2.4-0.8-4.7-1.7-7-2.7c-4.7-1.9-9.2-4.2-13.8-6.6c-2.3-1.3-4.4-2.6-6.6-3.9c-1.1-0.7-2.2-1.3-3.2-2
					c-1.1-0.7-2.1-1.4-3.2-2.1c-4.3-2.7-8.2-5.7-12.1-8.4c-3.8-2.9-7.5-5.8-10.7-8.7c-3.4-2.8-6.4-5.7-9.2-8.3
					c-2.7-2.7-5.2-5.2-7.2-7.6c-2.1-2.3-3.7-4.5-5.1-6.2c-2.8-3.5-4.4-5.5-4.4-5.5s1.7,1.9,4.7,5.2c1.5,1.7,3.2,3.7,5.4,5.9
					c2.1,2.3,4.7,4.6,7.4,7.3c2.9,2.5,5.9,5.3,9.3,8c3.3,2.8,7.1,5.5,10.8,8.4c3.9,2.7,7.9,5.6,12.1,8.3c1,0.7,2.1,1.4,3.1,2
					c1,0.7,2.2,1.3,3.3,1.9c2.2,1.3,4.4,2.6,6.6,3.8c4.4,2.4,8.9,4.7,13.5,6.7c2.3,1,4.6,2,6.9,2.7c1.1,0.4,2.3,0.8,3.4,1.2
					c1.2,0.3,2.3,0.7,3.4,1c2.2,0.7,4.5,1.1,6.7,1.7c1.1,0.3,2.2,0.4,3.3,0.6c1.1,0.1,2.1,0.4,3.2,0.5c1.1,0.1,2.2,0.1,3.2,0.2
					l0.8,0.1c0.2,0,0.5,0,0.7,0c0.5,0,1,0,1.5-0.1c2,0,4-0.4,5.8-0.7c0.9-0.2,1.8-0.4,2.7-0.7c0.9-0.2,1.7-0.4,2.5-0.7
					c1.6-0.6,3.2-1,4.6-1.7c1.4-0.6,2.7-1.2,3.9-1.9c0.6-0.3,1.1-0.7,1.7-1c0.3-0.2,0.5-0.3,0.8-0.5c0.2-0.2,0.5-0.3,0.7-0.5
					c0.9-0.6,1.7-1.2,2.4-1.7c0.7-0.6,1.2-1.1,1.6-1.5C834.9,404.5,835.4,404,835.4,404z"/>
			</g>
			<path class="st14" d="M480.5,578.7c0,0,0.4-0.5,1.2-1.5c0.8-1,1.9-2.4,3.4-4.1c0.8-0.9,1.6-1.8,2.5-2.9c1-1,2-2.1,3.1-3.3
				c1.1-1.2,2.4-2.3,3.6-3.6c0.7-0.6,1.3-1.3,2-1.9c0.7-0.6,1.4-1.3,2.2-1.9c2.9-2.7,6.3-5.4,9.9-8.2c1.8-1.3,3.7-2.8,5.6-4.1
				c2-1.3,4-2.7,6.1-4.1c2.1-1.3,4.3-2.5,6.5-3.8c1.1-0.6,2.2-1.3,3.3-1.9c1.2-0.6,2.3-1.2,3.5-1.7c2.3-1.2,4.7-2.4,7.1-3.5
				c2.4-1,4.9-2,7.3-3l1.8-0.8c0.6-0.3,1.2-0.5,1.9-0.7c1.3-0.4,2.5-0.8,3.8-1.2c1.3-0.4,2.5-0.8,3.8-1.2c1.3-0.4,2.5-0.8,3.8-1.1
				c2.5-0.6,5-1.3,7.5-1.9c0.6-0.2,1.2-0.3,1.9-0.5c0.6-0.1,1.2-0.2,1.9-0.3c1.2-0.2,2.5-0.4,3.7-0.6c1.2-0.2,2.4-0.4,3.6-0.6
				c0.6-0.1,1.2-0.2,1.8-0.3c0.6-0.1,1.2-0.1,1.8-0.2c2.4-0.2,4.7-0.4,7-0.6c1.1-0.1,2.2-0.2,3.4-0.3c1.1,0,2.2,0,3.3-0.1
				c2.1,0,4.2-0.1,6.2-0.1c0.5,0,1,0,1.5,0c0.5,0,1,0,1.4,0c0.9,0,1.9,0.1,2.8,0.1c1.8,0,3.5,0.2,5.1,0.3c3.2,0.2,6,0.6,8.3,0.8
				c2.3,0.3,4.1,0.6,5.3,0.8c1.2,0.2,1.9,0.3,1.9,0.3s-0.7-0.1-1.9-0.2c-1.2-0.1-3-0.3-5.3-0.5c-2.3-0.1-5.1-0.4-8.3-0.5
				c-1.6-0.1-3.3-0.1-5.1-0.1c-0.9,0-1.8,0-2.8,0c-0.5,0-1,0-1.4,0c-0.5,0-1,0-1.5,0.1c-2,0.1-4,0.2-6.1,0.3
				c-1.1,0.1-2.1,0.1-3.2,0.2c-1.1,0.1-2.2,0.2-3.3,0.4c-2.2,0.3-4.5,0.5-6.9,0.8c-1.2,0.1-2.4,0.3-3.5,0.6
				c-1.2,0.2-2.4,0.4-3.6,0.7s-2.4,0.4-3.7,0.7c-0.6,0.1-1.2,0.2-1.8,0.4c-0.6,0.2-1.2,0.3-1.8,0.5c-2.4,0.6-4.9,1.3-7.4,1.9
				c-1.3,0.3-2.5,0.7-3.7,1.1c-1.2,0.4-2.5,0.8-3.7,1.2c-1.2,0.4-2.5,0.8-3.7,1.2c-1.2,0.4-2.4,1-3.6,1.5c-2.4,1-4.9,2-7.3,2.9
				c-2.4,1.1-4.7,2.3-7,3.4c-1.2,0.6-2.3,1.1-3.5,1.7c-1.1,0.6-2.2,1.3-3.3,1.9c-2.2,1.3-4.4,2.5-6.5,3.8c-2.1,1.3-4.1,2.6-6.1,3.9
				c-2,1.3-3.8,2.7-5.7,4c-3.6,2.7-7,5.3-10,7.8c-0.8,0.6-1.5,1.3-2.2,1.9c-0.7,0.6-1.4,1.2-2.1,1.8c-1.3,1.2-2.6,2.3-3.8,3.4
				c-1.2,1.1-2.2,2.2-3.2,3.1c-1,1-1.8,1.9-2.6,2.7c-1.6,1.6-2.8,3-3.6,3.9C480.9,578.2,480.5,578.7,480.5,578.7z"/>
			<path class="st17" d="M587.6,537.6c0,0-1.1,0.5-3.1,1.3c-1,0.5-2.2,1-3.5,1.7c-1.3,0.7-2.8,1.5-4.4,2.5c-0.8,0.5-1.6,1-2.4,1.5
				c-0.8,0.6-1.7,1.1-2.5,1.7c-0.9,0.6-1.7,1.3-2.6,1.9c-0.8,0.7-1.7,1.4-2.6,2.1c-1.7,1.5-3.4,3.1-5.1,4.9
				c-1.7,1.7-3.2,3.6-4.6,5.6c-1.4,2-2.7,4-3.7,6.2c-0.9,2.2-2,4.4-2.6,6.5c-0.8,2.1-1.3,4.3-1.9,6.3c-0.5,2-0.9,4-1.2,5.8
				c-0.3,1.8-0.5,3.5-0.8,5c-0.2,1.5-0.3,2.8-0.4,3.9c-0.2,2.2-0.3,3.4-0.3,3.4s-0.1-1.2-0.1-3.4c0-1.1,0-2.4,0-3.9
				c0.1-1.5,0.1-3.2,0.4-5.1c0.1-0.9,0.2-1.9,0.4-2.9c0.2-1,0.3-2,0.5-3.1c0.5-2.1,0.9-4.3,1.7-6.5c0.7-2.3,1.6-4.4,2.5-6.8
				c1-2.3,2.4-4.4,3.8-6.5c1.5-2,3.1-4,4.9-5.7c1.7-1.8,3.5-3.4,5.3-4.9c0.9-0.7,1.8-1.4,2.7-2.1c0.9-0.6,1.8-1.3,2.7-1.9
				c0.9-0.6,1.8-1.1,2.7-1.6c0.9-0.5,1.7-1,2.6-1.4c0.8-0.4,1.6-0.8,2.4-1.2c0.8-0.4,1.5-0.7,2.2-1c1.4-0.6,2.7-1,3.7-1.4
				c1-0.4,1.9-0.5,2.4-0.7C587.3,537.7,587.6,537.6,587.6,537.6z"/>
			<path class="st14" d="M700.3,494c0,0,2.8-0.8,7-1.8c1.1-0.2,2.2-0.5,3.4-0.8c1.2-0.2,2.5-0.6,3.8-0.9c1.3-0.3,2.6-0.7,4-1
				c1.4-0.3,2.8-0.7,4.2-1c1.4-0.3,2.8-0.8,4.1-1.1c1.4-0.4,2.7-0.7,4-1.1c1.3-0.4,2.6-0.6,3.8-1c1.2-0.4,2.3-0.7,3.3-1
				c4.1-1.2,7-1.8,7-1.8s-2.6,1.3-6.6,2.9c-1,0.4-2.1,0.9-3.3,1.3c-1.2,0.4-2.4,0.8-3.7,1.2c-1.3,0.4-2.6,0.8-4,1.2
				c-1.4,0.4-2.7,0.9-4.2,1.2c-1.4,0.3-2.8,0.6-4.2,0.9c-1.4,0.3-2.8,0.6-4.1,0.9c-1.3,0.3-2.6,0.5-3.8,0.7
				c-1.2,0.2-2.4,0.3-3.5,0.4C703.2,493.8,700.3,494,700.3,494z"/>
			<path class="st17" d="M734.4,533.9c0,0,3.3,4.1,8.2,10.4c1.2,1.5,2.6,3.2,4.1,4.9c0.7,0.9,1.5,1.7,2.3,2.6
				c0.8,0.9,1.6,1.8,2.4,2.7c0.8,0.9,1.7,1.8,2.6,2.7c0.9,0.9,1.8,1.8,2.7,2.7c0.5,0.4,1,0.9,1.4,1.3l0.7,0.7l0.7,0.6
				c1,0.8,2.1,1.7,3.1,2.3l1.6,1.1c0.5,0.3,1.1,0.6,1.7,0.9c0.6,0.3,1.1,0.6,1.7,0.9c0.6,0.3,1.2,0.5,1.8,0.8c2.3,1,4.7,1.7,7.1,2.3
				c1.2,0.3,2.4,0.4,3.5,0.6c1.2,0.2,2.3,0.2,3.4,0.3l0.4,0l0.2,0l0.2,0c0.3,0,0.6,0,0.8,0c0.6,0,1.1,0,1.6,0c1.1,0,2-0.2,3-0.2
				c1,0,1.9-0.3,2.8-0.4c0.4-0.1,0.9-0.1,1.3-0.2c0.4-0.1,0.8-0.2,1.2-0.3c1.6-0.4,2.9-0.8,4-1.1c2.2-0.6,3.5-1,3.5-1
				s-1.2,0.5-3.4,1.4c-1.1,0.4-2.4,0.9-3.9,1.4c-0.4,0.1-0.8,0.3-1.2,0.4c-0.4,0.1-0.8,0.2-1.3,0.3c-0.9,0.2-1.8,0.5-2.8,0.6
				c-1,0.1-2.1,0.4-3.1,0.4c-0.5,0-1.1,0.1-1.6,0.1c-0.3,0-0.6,0-0.8,0.1l-0.2,0c-0.1,0-0.2,0-0.2,0l-0.4,0c-1.2,0-2.4,0-3.6-0.1
				c-0.6-0.1-1.2-0.1-1.8-0.2c-0.6-0.1-1.2-0.1-1.9-0.3c-0.6-0.1-1.2-0.3-1.9-0.4l-0.9-0.2l-0.9-0.3c-1.2-0.4-2.5-0.7-3.7-1.3
				c-0.6-0.3-1.2-0.5-1.8-0.8c-0.6-0.3-1.2-0.6-1.8-0.9c-0.6-0.3-1.2-0.6-1.8-1l-1.7-1.1c-1.2-0.7-2.2-1.6-3.2-2.4l-0.8-0.6
				l-0.7-0.7c-0.5-0.5-1-0.9-1.5-1.3c-1-0.9-1.9-1.8-2.8-2.8c-0.9-0.9-1.8-1.9-2.6-2.8c-0.8-1-1.6-1.9-2.4-2.8
				c-0.7-0.9-1.5-1.9-2.2-2.8c-1.4-1.8-2.7-3.6-3.8-5.2c-1.1-1.6-2.2-3.1-3.1-4.5c-0.9-1.3-1.7-2.5-2.3-3.5
				C735.1,535.1,734.4,533.9,734.4,533.9z"/>
			<path class="st14" d="M759,476.7c0,0,1-0.6,2.9-1.6c0.9-0.5,2-1.1,3.3-1.8c1.3-0.7,2.8-1.5,4.3-2.4c1.6-0.9,3.2-1.9,5-2.9
				c1.8-1,3.6-2.2,5.6-3.3c1.9-1.2,3.9-2.3,5.9-3.6c2-1.3,4-2.5,6-3.8c2-1.3,4-2.6,6-3.9c1-0.6,2-1.3,2.9-1.9c1-0.7,1.9-1.3,2.8-1.9
				c1.9-1.3,3.7-2.5,5.4-3.6c1.7-1.2,3.3-2.3,4.8-3.3c3-2,5.5-3.7,7.2-4.9c1.7-1.2,2.7-1.8,2.7-1.8s-0.9,0.8-2.5,2.1
				c-0.8,0.7-1.8,1.5-2.9,2.4c-1.1,0.9-2.4,2-3.8,3.1c-1.4,1.1-3,2.3-4.6,3.6c-1.6,1.3-3.4,2.5-5.2,3.9c-1.8,1.3-3.7,2.7-5.7,4
				c-2,1.3-3.9,2.7-6,4c-2,1.3-4.1,2.5-6.1,3.8c-1,0.6-2,1.2-3,1.8c-1,0.6-2,1.1-3,1.7c-2,1.1-3.9,2.2-5.7,3.1
				c-1.9,0.9-3.6,1.8-5.2,2.6c-1.6,0.8-3.1,1.5-4.5,2c-1.3,0.6-2.5,1.1-3.5,1.5C760.1,476.3,759,476.7,759,476.7z"/>
			<path class="st17" d="M850.7,518.6c0,0-0.3-1.3-0.7-3.7c-0.1-1.2-0.6-2.6-1-4.2c-0.1-0.4-0.2-0.8-0.3-1.2
				c-0.1-0.4-0.3-0.8-0.5-1.3c-0.3-0.9-0.6-1.8-1-2.7c-0.4-0.9-0.8-1.9-1.3-2.9c-0.2-0.5-0.4-1-0.7-1.5c-0.3-0.5-0.6-1-0.8-1.5
				c-0.6-1-1.1-2.1-1.8-3c-0.3-0.5-0.7-1-1-1.5c-0.4-0.5-0.7-1-1.1-1.5c-0.8-0.9-1.6-1.9-2.5-2.9c-0.9-0.9-1.9-1.8-2.8-2.7
				c-2-1.7-4.1-3.3-6.4-4.7c-2.3-1.4-4.6-2.7-7.1-3.7c-0.6-0.3-1.2-0.5-1.8-0.7c-0.6-0.2-1.2-0.5-1.8-0.7c-1.2-0.4-2.4-0.9-3.6-1.2
				c-1.2-0.4-2.4-0.7-3.6-1c-0.6-0.2-1.2-0.3-1.7-0.4c-0.6-0.1-1.2-0.2-1.7-0.4c-0.6-0.1-1.1-0.2-1.7-0.4c-0.6-0.1-1.1-0.2-1.6-0.3
				c-1.1-0.2-2.1-0.4-3.1-0.5c-2-0.3-3.9-0.5-5.5-0.7c-1.6-0.1-3.1-0.3-4.3-0.4c-2.4-0.1-3.7-0.2-3.7-0.2s1.4-0.1,3.7-0.1
				c1.2,0,2.6,0,4.3,0c1.7,0.1,3.5,0.1,5.6,0.3c1,0.1,2.1,0.2,3.2,0.3c1.1,0.1,2.2,0.3,3.4,0.5c0.6,0.1,1.2,0.2,1.8,0.3
				c0.6,0.1,1.2,0.2,1.8,0.4c1.2,0.2,2.4,0.6,3.7,0.9c1.3,0.3,2.5,0.8,3.8,1.1c1.2,0.5,2.5,0.9,3.8,1.4c2.5,1,5,2.3,7.4,3.7
				c2.3,1.5,4.6,3.2,6.6,5c1,1,1.9,1.9,2.9,2.9c0.9,1,1.7,2.1,2.5,3.1c1.5,2.1,2.9,4.2,3.9,6.4c0.3,0.5,0.5,1.1,0.8,1.6
				c0.2,0.5,0.4,1.1,0.6,1.6c0.4,1,0.8,2,1.1,3c0.3,1,0.5,1.9,0.8,2.9c0.1,0.5,0.2,0.9,0.4,1.3c0.1,0.4,0.2,0.9,0.2,1.3
				c0.3,1.7,0.6,3.1,0.7,4.3C850.6,517.3,850.7,518.6,850.7,518.6z"/>
			<path class="st14" d="M837.5,425.3c0,0,1.7,0.1,4.5,0.3c1.4,0.1,3.2,0.2,5.2,0.5c2,0.2,4.3,0.5,6.7,0.8c2.5,0.4,5.1,0.8,7.9,1.3
				c2.8,0.6,5.7,1.2,8.8,1.9c1.5,0.4,3,0.8,4.6,1.2c0.8,0.2,1.6,0.4,2.3,0.6c0.8,0.2,1.6,0.5,2.3,0.7c1.6,0.5,3.1,1,4.7,1.5
				c1.6,0.6,3.1,1.2,4.7,1.7c1.6,0.6,3.1,1.3,4.6,2c1.5,0.7,3.1,1.3,4.5,2.1c2.9,1.5,5.8,3.1,8.4,4.8c2.6,1.7,5,3.6,7.1,5.6
				c2.1,1.9,3.9,4,5.4,6.1c1.4,2.1,2.6,4.1,3.3,6c0.2,0.5,0.4,0.9,0.5,1.4c0.1,0.5,0.2,0.9,0.4,1.3c0.1,0.4,0.2,0.8,0.3,1.2
				c0.1,0.4,0.1,0.8,0.2,1.1c0.1,0.7,0.2,1.4,0.2,1.9c0,0.6,0,1,0,1.4c0,0.8,0,1.2,0,1.2s0-0.4-0.1-1.2c0-0.4-0.1-0.9-0.2-1.4
				c-0.1-0.6-0.3-1.2-0.4-1.9c-0.1-0.3-0.2-0.7-0.2-1.1c-0.1-0.4-0.3-0.8-0.4-1.2c-0.1-0.4-0.3-0.8-0.4-1.3
				c-0.2-0.4-0.4-0.9-0.6-1.3c-0.2-0.4-0.4-0.9-0.7-1.4c-0.3-0.5-0.6-0.9-0.8-1.4c-0.1-0.2-0.3-0.5-0.4-0.7
				c-0.2-0.2-0.3-0.5-0.5-0.7c-0.3-0.5-0.7-1-1-1.5c-1.6-1.9-3.4-3.8-5.5-5.6c-2.1-1.8-4.5-3.6-7.1-5.2c-2.6-1.6-5.4-3.1-8.3-4.6
				c-1.5-0.7-2.9-1.3-4.4-2c-1.5-0.6-3-1.3-4.5-1.9c-1.5-0.6-3.1-1.2-4.6-1.8c-1.5-0.5-3.1-1-4.6-1.5c-3.1-1.1-6.2-1.9-9.1-2.7
				c-3-0.8-5.9-1.5-8.6-2.2c-2.8-0.6-5.4-1.2-7.8-1.7c-2.4-0.4-4.7-0.9-6.6-1.2c-2-0.4-3.7-0.6-5.2-0.8
				C839.1,425.6,837.5,425.3,837.5,425.3z"/>
			<path class="st14" d="M168.3,354.1c0,0,2.7-0.3,7.6-0.8c4.8-0.5,11.7-1.2,19.9-2c4.1-0.4,8.6-0.8,13.3-1.3
				c4.7-0.4,9.7-1.1,14.8-1.7c10.3-1.2,21.3-2.5,32.3-3.7c5.5-0.6,11-1.2,16.4-1.8c5.4-0.5,10.8-1,15.9-1.5
				c5.2-0.5,10.2-0.9,14.9-1.3c2.4-0.2,4.7-0.4,6.9-0.6c2.2-0.1,4.4-0.3,6.5-0.4c8.3-0.5,15.2-0.8,20-1.1c4.8-0.2,7.6-0.4,7.6-0.4
				s-2.8,0.3-7.6,0.7c-4.8,0.4-11.7,1.1-20,1.8c-2.1,0.2-4.2,0.4-6.4,0.6c-2.2,0.2-4.5,0.5-6.9,0.8c-4.7,0.5-9.7,1.1-14.9,1.6
				c-5.2,0.5-10.5,1.1-15.9,1.6c-5.4,0.6-10.9,1.3-16.4,1.9c-11,1.2-22,2.4-32.3,3.5c-5.2,0.5-10.1,1.1-14.9,1.4
				c-4.7,0.3-9.2,0.6-13.4,0.9c-8.3,0.6-15.2,1-20,1.3C171,354,168.3,354.1,168.3,354.1z"/>
			<path class="st17" d="M254.2,423.6c0,0-0.1-0.2-0.4-0.7c-0.3-0.4-0.6-1.1-1.2-1.9c-0.5-0.8-1.2-1.7-2-2.8
				c-0.8-1.1-1.8-2.2-2.8-3.4c-1.1-1.2-2.2-2.5-3.5-3.8c-1.3-1.4-2.7-2.7-4.1-4.1c-0.7-0.7-1.5-1.4-2.2-2.1l-0.6-0.5l-0.1-0.1
				L237,404l-0.3-0.3c-0.4-0.4-0.8-0.7-1.2-1.1c-1.6-1.4-3.2-2.9-4.9-4.3c-1.6-1.5-3.3-2.8-4.9-4.2c-1.7-1.3-3.3-2.7-4.8-4
				c-1.6-1.2-3.2-2.4-4.7-3.6c-1.5-1.1-2.9-2.2-4.2-3.2c-2.6-1.9-4.9-3.5-6.4-4.6c-1.5-1.1-2.4-1.8-2.4-1.8s1,0.5,2.6,1.5
				c0.8,0.5,1.8,1,3,1.7c1.2,0.7,2.5,1.4,3.9,2.3c1.4,0.9,2.8,1.9,4.4,3c1.5,1.1,3.2,2.2,4.8,3.4c1.6,1.3,3.3,2.5,5,3.9
				c1.7,1.4,3.4,2.7,5,4.1c1.6,1.5,3.2,2.9,4.8,4.4c0.4,0.4,0.8,0.7,1.2,1.1l0.3,0.3l0.2,0.2l0.1,0.1l0.6,0.6
				c0.7,0.7,1.5,1.5,2.2,2.2c1.4,1.5,2.8,2.9,4,4.4c1.3,1.4,2.3,2.8,3.3,4.1c1,1.3,1.8,2.6,2.5,3.7c0.7,1.1,1.3,2.2,1.7,3
				c0.5,0.8,0.7,1.5,0.9,2C254.1,423.4,254.2,423.6,254.2,423.6z"/>
			<path class="st14" d="M296.6,379.2c-3.1,3.4-6.3,6.7-9.5,10.1l-0.3-0.6l8.3-1.5l8.3-1.4l8.3-1.4l8.3-1.3c2.8-0.4,5.5-0.8,8.3-1.2
				l8.3-1.1c2.8-0.4,5.6-0.7,8.3-1l8.4-0.9l8.4-0.8c2.8-0.2,5.6-0.5,8.4-0.7l8.4-0.5c2.8-0.2,5.6-0.4,8.4-0.4l8.4-0.3
				c2.8-0.1,5.6-0.2,8.4-0.1l8.4,0.1c2.8,0,5.6,0,8.4,0.2c-2.8,0.1-5.6,0.2-8.4,0.3l-8.4,0.3c-2.8,0.1-5.6,0.3-8.4,0.5l-8.4,0.5
				c-2.8,0.1-5.6,0.4-8.4,0.6l-8.4,0.7c-2.8,0.2-5.6,0.5-8.3,0.8l-8.3,0.8l-8.3,0.9c-2.8,0.3-5.6,0.6-8.3,0.9l-8.3,1
				c-2.8,0.3-5.5,0.7-8.3,1.1l-8.3,1.1l-8.3,1.2l-16.6,2.3l-1.2,0.2l0.8-0.8C289.9,385.5,293.2,382.3,296.6,379.2z"/>
			<path class="st14" d="M204.6,369.5c0,0,2.1-0.3,5.7-0.8c3.6-0.5,8.8-1.2,15.1-2c3.1-0.4,6.5-0.8,10.1-1.2
				c1.8-0.2,3.6-0.4,5.5-0.7c1.9-0.2,3.8-0.4,5.8-0.6c3.9-0.4,8-0.8,12.1-1.1c4.1-0.4,8.3-0.7,12.5-1.1c2.1-0.2,4.2-0.4,6.3-0.5
				c2.1-0.1,4.2-0.3,6.2-0.4c4.1-0.3,8.2-0.5,12.1-0.7c3.9-0.2,7.7-0.4,11.3-0.6c3.6-0.2,7-0.2,10.2-0.3c6.3-0.2,11.6-0.2,15.2-0.3
				c3.7,0,5.8-0.1,5.8-0.1s-2.1,0.2-5.8,0.5c-3.7,0.3-8.9,0.7-15.2,1.1c-1.6,0.1-3.2,0.2-4.9,0.3c-1.7,0.1-3.4,0.2-5.2,0.4
				c-3.6,0.3-7.4,0.6-11.3,0.9c-3.9,0.3-8,0.6-12.1,0.9c-2.1,0.1-4.1,0.3-6.2,0.4c-2.1,0.2-4.2,0.4-6.3,0.5
				c-4.2,0.4-8.4,0.7-12.5,1.1c-4.1,0.3-8.2,0.7-12.1,1c-2,0.2-3.9,0.3-5.8,0.4c-1.9,0.2-3.7,0.3-5.5,0.5c-3.6,0.3-7,0.6-10.1,0.9
				c-6.3,0.5-11.5,0.9-15.2,1.2C206.7,369.3,204.6,369.5,204.6,369.5z"/>
			<path class="st13" d="M415.1,567.5c-0.2-0.1-0.5-0.2-0.7-0.3C414.7,567.3,414.9,567.4,415.1,567.5z"/>
			<path class="st13" d="M414.4,567.2c-25.5-10.6-62.6-23-77-30.7C351.8,544.2,388.9,556.6,414.4,567.2z"/>
			<path class="st13" d="M336.1,535.8c-0.6-0.3-1.1-0.7-1.6-1C335,535.1,335.5,535.4,336.1,535.8z"/>
			<path class="st14" d="M341.5,533.6c0,0,2.1-1.8,5.7-4.9c1.8-1.6,4.2-3.3,6.8-5.4c2.6-2.1,5.7-4.3,9.1-6.7
				c3.4-2.3,7.1-4.9,11.1-7.4c2-1.3,4-2.6,6.2-3.8c2.1-1.3,4.3-2.6,6.6-3.8c2.3-1.2,4.6-2.5,6.9-3.8c2.4-1.2,4.8-2.4,7.2-3.7
				c2.4-1.2,4.9-2.3,7.4-3.5c2.5-1.2,5-2.3,7.5-3.4c2.5-1.1,5.1-2.2,7.6-3.2c2.6-1,5.1-2.1,7.6-3c2.5-0.9,5.1-1.9,7.6-2.8
				c2.5-0.9,5-1.7,7.5-2.5c2.4-0.8,4.9-1.6,7.2-2.3c2.4-0.7,4.7-1.5,7-2.1c4.6-1.2,8.9-2.5,12.9-3.4c2-0.5,3.9-1,5.8-1.4
				c1.8-0.4,3.6-0.7,5.2-1.1c3.3-0.7,6.1-1.3,8.5-1.7c4.7-0.9,7.4-1.5,7.4-1.5s-2.7,0.7-7.3,1.9c-2.3,0.6-5.2,1.3-8.4,2.1
				c-1.6,0.4-3.3,0.8-5.2,1.3c-1.8,0.5-3.7,1-5.7,1.6c-4,1.1-8.2,2.4-12.8,3.7c-2.3,0.7-4.6,1.5-6.9,2.2c-2.3,0.8-4.8,1.5-7.2,2.4
				c-2.4,0.8-4.9,1.7-7.4,2.6c-2.5,0.9-5,1.9-7.5,2.8c-2.5,0.9-5,2-7.6,3c-2.5,1-5.1,2.1-7.6,3.2c-2.5,1.1-5,2.1-7.5,3.3
				c-2.5,1.2-5,2.2-7.4,3.5c-2.4,1.2-4.8,2.4-7.2,3.6c-2.3,1.2-4.6,2.5-6.9,3.7c-2.3,1.2-4.4,2.5-6.6,3.7c-2.2,1.2-4.2,2.4-6.3,3.7
				c-4.1,2.4-7.8,4.9-11.2,7.1c-1.7,1.1-3.3,2.3-4.9,3.3c-1.5,1.1-3,2-4.4,3c-2.7,2-5.1,3.7-7,5.2
				C343.7,531.9,341.5,533.6,341.5,533.6z"/>
			<path class="st17" d="M516.5,501.5l-6.2,3c-2.1,1-4.1,2.1-6.1,3.2c-2,1.1-4,2.2-6,3.3c-2,1.1-3.9,2.3-5.9,3.5
				c-2,1.1-3.9,2.4-5.8,3.7c-1.9,1.2-3.8,2.5-5.7,3.8c-1.9,1.3-3.7,2.7-5.5,4c-0.9,0.7-1.8,1.3-2.7,2.1l-2.7,2.1
				c-1.8,1.4-3.5,2.9-5.2,4.4c-1.7,1.5-3.4,3.1-5.1,4.6c-1.7,1.5-3.3,3.2-4.9,4.8c-1.6,1.6-3.1,3.3-4.7,5c-1.6,1.7-3,3.5-4.4,5.2
				c-0.7,0.9-1.4,1.8-2.1,2.7l-2.1,2.7c-1.4,1.8-2.6,3.7-4,5.6c-1.3,1.9-2.5,3.8-3.7,5.8l-0.3,0.4l-0.4-0.2l-4.2-2.2l-2.1-1.1
				c-0.7-0.4-1.4-0.7-2.1-1l-8.6-4c3,1.1,5.9,2.3,8.8,3.5c0.7,0.3,1.5,0.6,2.2,0.9l2.2,1l4.3,2l-0.7,0.2c1.2-2,2.3-4,3.5-6
				c1.3-1.9,2.5-3.9,3.8-5.8c1.4-1.9,2.7-3.8,4.1-5.6c1.5-1.8,2.8-3.6,4.4-5.3c1.5-1.7,3-3.5,4.7-5.1c1.6-1.7,3.2-3.3,4.9-4.9
				c1.7-1.6,3.3-3.2,5.1-4.7c1.7-1.5,3.5-3,5.3-4.4c1.8-1.4,3.6-2.9,5.5-4.2c1.9-1.4,3.7-2.7,5.7-4c1.9-1.3,3.8-2.6,5.8-3.8
				c2-1.2,3.9-2.4,5.9-3.5c2-1.1,4-2.3,6.1-3.3c2.1-1,4.1-2.1,6.2-3.1c2.1-0.9,4.2-1.9,6.3-2.8L516.5,501.5z"/>
			<path class="st14" d="M430.1,503.5c0,0,1.5-0.6,4.1-1.6c2.6-1,6.3-2.4,10.8-3.9c2.2-0.8,4.7-1.7,7.2-2.5c2.6-0.9,5.3-1.8,8.1-2.7
				c2.8-0.9,5.8-1.8,8.8-2.7c3-0.9,6-1.8,9.1-2.7c3.1-0.8,6.1-1.7,9.1-2.5c3-0.8,6-1.4,8.9-2.1c1.4-0.3,2.9-0.7,4.3-1
				c1.4-0.3,2.8-0.6,4.1-0.8c2.7-0.5,5.2-1,7.6-1.4c2.3-0.5,4.5-0.7,6.4-1c1.9-0.3,3.6-0.5,5-0.7c2.7-0.4,4.3-0.6,4.3-0.6
				s-1.5,0.4-4.3,0.9c-1.4,0.3-3,0.6-4.9,1c-1.9,0.4-4,0.8-6.3,1.4c-2.3,0.5-4.8,1.1-7.5,1.8c-2.7,0.6-5.4,1.3-8.3,2.1
				c-2.9,0.7-5.8,1.5-8.8,2.3c-3,0.8-6,1.7-9.1,2.5c-3.1,0.8-6.1,1.7-9.1,2.6c-3,0.9-5.9,1.7-8.8,2.6c-5.7,1.7-11,3.3-15.5,4.6
				c-4.6,1.3-8.4,2.5-11,3.2C431.6,503,430.1,503.5,430.1,503.5z"/>
			<path class="st17" d="M423.7,454.3c0,0-1.5,0.5-4.2,1.4c-1.3,0.4-3,1-4.8,1.6c-1.9,0.6-4,1.4-6.2,2.2c-2.3,0.8-4.7,1.7-7.3,2.6
				c-2.6,1-5.3,2-8.2,3c-1.4,0.5-2.9,1-4.3,1.6c-1.4,0.6-2.9,1.1-4.4,1.7c-2.9,1.1-6,2.3-8.9,3.5c-3,1.2-6,2.4-8.9,3.6
				c-2.9,1.2-5.8,2.4-8.6,3.6c-2.8,1.2-5.5,2.3-8,3.4c-2.5,1.1-4.9,2.1-7.1,3.1c-4.4,1.9-8.1,3.6-10.7,4.7c-2.6,1.1-4.1,1.8-4.1,1.8
				s1.4-0.8,3.9-2.1c1.2-0.7,2.8-1.5,4.5-2.4c1.7-0.9,3.7-2,5.9-3c2.2-1.1,4.5-2.2,7-3.4c2.5-1.2,5.1-2.4,7.9-3.7
				c1.4-0.6,2.8-1.2,4.2-1.9c1.4-0.6,2.9-1.3,4.3-1.9c2.9-1.2,5.9-2.4,8.9-3.7c3-1.2,6-2.3,9-3.4c1.5-0.5,3-1.1,4.4-1.6
				c1.5-0.5,2.9-1,4.4-1.5c2.9-1,5.6-1.9,8.3-2.7c2.7-0.8,5.2-1.6,7.5-2.2c1.2-0.3,2.3-0.7,3.3-1c1.1-0.3,2.1-0.5,3-0.8
				c1.9-0.5,3.6-0.9,4.9-1.3C422.1,454.7,423.7,454.3,423.7,454.3z"/>
			<path class="st14" d="M321.6,468.9c0,0,1.5-0.6,4.2-1.7c2.7-1.1,6.4-2.6,11-4.4c4.6-1.8,9.9-3.8,15.6-6c2.9-1.1,5.8-2.2,8.8-3.3
				c3-1.1,6.1-2.2,9.2-3.3c3.1-1.1,6.2-2.2,9.2-3.2c3.1-1,6.1-1.9,9-2.9c2.9-0.9,5.7-1.8,8.4-2.6c2.7-0.9,5.2-1.5,7.6-2.1
				c4.7-1.3,8.7-2.2,11.5-2.9c2.8-0.7,4.4-1.1,4.4-1.1s-1.5,0.5-4.3,1.4c-2.7,0.9-6.6,2.2-11.2,3.7c-2.3,0.8-4.9,1.5-7.5,2.5
				c-2.6,0.9-5.4,1.9-8.3,2.9c-2.9,1-5.9,2-8.9,3c-3,1.1-6.1,2.2-9.2,3.3c-3.1,1.1-6.1,2.2-9.2,3.2c-3,1.1-6,2.1-8.9,3.2
				c-5.8,2.1-11.2,3.9-15.8,5.5c-4.6,1.6-8.5,2.8-11.2,3.7C323.1,468.5,321.6,468.9,321.6,468.9z"/>
			<path class="st14" d="M265,469.7c0,0,0.7-0.5,1.9-1.4c1.3-0.9,3.1-2.2,5.5-3.9c2.5-1.5,5.4-3.5,8.9-5.6c1.7-1,3.6-2.1,5.6-3.2
				c1-0.6,2-1.1,3.1-1.7c1.1-0.6,2.1-1.1,3.2-1.7c1.1-0.6,2.2-1.2,3.4-1.8c1.2-0.6,2.3-1.1,3.5-1.7c2.4-1.2,4.9-2.4,7.5-3.6
				c2.6-1.2,5.3-2.4,8-3.6c2.8-1.2,5.6-2.3,8.4-3.5c2.9-1.1,5.8-2.3,8.8-3.4c3-1.1,6-2.2,9.1-3.4c3.1-1.1,6.2-2.2,9.3-3.2
				c3.1-1,6.3-2.1,9.4-3.1c6.3-2,12.7-3.9,18.9-5.7c6.3-1.8,12.5-3.4,18.5-5c6-1.5,11.9-2.8,17.4-4.2c5.6-1.2,10.8-2.3,15.7-3.4
				c4.9-1,9.3-1.8,13.3-2.5c4-0.8,7.4-1.3,10.3-1.8c5.7-0.9,9-1.4,9-1.4s-3.2,0.7-8.9,1.8c-2.8,0.6-6.3,1.2-10.2,2.1
				c-3.9,0.9-8.4,1.8-13.2,2.9c-4.8,1.1-10.1,2.4-15.6,3.7c-5.5,1.4-11.3,2.9-17.3,4.4c-6,1.6-12.2,3.3-18.4,5.1
				c-6.2,1.8-12.6,3.8-18.9,5.8c-3.1,1-6.3,2-9.4,3c-3.1,1.1-6.2,2.1-9.3,3.2c-3.1,1.1-6.1,2.2-9.1,3.3c-3,1.1-5.9,2.3-8.8,3.4
				c-2.9,1.2-5.7,2.3-8.5,3.4c-2.8,1.1-5.4,2.3-8,3.4c-2.6,1.1-5.1,2.3-7.5,3.4c-1.2,0.6-2.4,1.1-3.6,1.7c-1.2,0.6-2.3,1.1-3.4,1.7
				c-4.5,2.2-8.4,4.3-12,6.2c-3.5,1.9-6.5,3.8-9,5.2C267.8,467.9,265,469.7,265,469.7z"/>
		</g>
	</g>
</g>
</svg>
